<svg width="870" height="246" viewBox="0 0 870 246" fill="none" xmlns="http://www.w3.org/2000/svg">
<rect width="246" height="246" fill="#2E2C2C"/>
<path d="M83.64 106.984L80.504 107.624L80.856 107.272V128.072L80.504 127.688L83.64 128.296V129.64H75.864V128.296L78.968 127.72L78.648 128.072V107.272L79.032 107.624L75.864 107.144V105.8L83.64 105.64V106.984ZM79.32 125.64C77.1013 125.64 75.1813 125.384 73.56 124.872C71.96 124.339 70.7227 123.496 69.848 122.344C68.9947 121.192 68.568 119.688 68.568 117.832C68.568 115.891 69.0373 114.323 69.976 113.128C70.9147 111.912 72.2267 111.037 73.912 110.504C75.6187 109.949 77.6347 109.672 79.96 109.672C81.6453 109.672 83.16 109.821 84.504 110.12C85.8693 110.397 87.0213 110.845 87.96 111.464C88.92 112.061 89.656 112.851 90.168 113.832C90.68 114.813 90.936 115.997 90.936 117.384C90.936 119.261 90.4667 120.819 89.528 122.056C88.6107 123.272 87.2773 124.179 85.528 124.776C83.8 125.352 81.7307 125.64 79.32 125.64ZM79.512 124.04C81.2827 124.061 82.808 123.869 84.088 123.464C85.3893 123.059 86.4027 122.376 87.128 121.416C87.8533 120.435 88.216 119.123 88.216 117.48C88.216 115.923 87.8747 114.696 87.192 113.8C86.5307 112.883 85.5707 112.232 84.312 111.848C83.0747 111.464 81.5707 111.272 79.8 111.272C78.0933 111.272 76.6 111.464 75.32 111.848C74.04 112.232 73.048 112.893 72.344 113.832C71.64 114.771 71.288 116.072 71.288 117.736C71.288 119.293 71.608 120.531 72.248 121.448C72.9093 122.365 73.8587 123.027 75.096 123.432C76.3333 123.837 77.8053 124.04 79.512 124.04ZM106.149 127.56L105.733 126.984L108.677 127.56V128.968L104.197 129.16L103.813 126.088L104.037 126.184C103.099 127.208 102.085 127.987 100.997 128.52C99.9093 129.032 98.8533 129.288 97.8293 129.288C96.5919 129.288 95.5466 128.893 94.6933 128.104C93.8399 127.315 93.4133 126.12 93.4133 124.52C93.4133 123.261 93.6799 122.301 94.2133 121.64C94.7466 120.957 95.4826 120.477 96.4213 120.2C97.3599 119.923 98.4479 119.784 99.6853 119.784H103.877L103.589 120.104V117.032C103.589 115.859 103.28 115.027 102.661 114.536C102.043 114.024 101.189 113.768 100.101 113.768C99.5253 113.768 98.9066 113.832 98.2453 113.96C97.6053 114.067 96.9226 114.248 96.1973 114.504L96.5813 114.088L96.2613 117H94.5653L94.3093 113.032C95.5253 112.627 96.6666 112.328 97.7333 112.136C98.7999 111.923 99.7813 111.816 100.677 111.816C102.384 111.816 103.717 112.2 104.677 112.968C105.659 113.715 106.149 114.92 106.149 116.584V127.56ZM96.0052 124.296C96.0052 125.341 96.2506 126.109 96.7413 126.6C97.2533 127.091 97.8933 127.336 98.6613 127.336C99.4079 127.336 100.229 127.112 101.125 126.664C102.043 126.195 102.928 125.565 103.781 124.776L103.589 125.448V121.16L103.877 121.448H100.069C98.5546 121.448 97.4986 121.683 96.9013 122.152C96.3039 122.6 96.0052 123.315 96.0052 124.296ZM110.497 129V127.624L113.536 126.92L112.993 127.496V113.64L113.665 114.248L110.497 113.544V112.2L117.889 112.008V113.352L114.849 114.152L115.457 113.576V124.488L115.009 124.456L124.641 114.376L124.353 114.984L124.321 113.64L124.769 114.12L121.889 113.544V112.2L129.281 112.008V113.352L126.208 114.152L126.785 113.576V127.496L126.241 126.92L129.281 127.624V129H121.889V127.624L124.801 126.984L124.321 127.496V116.232L124.737 116.456L115.137 126.664L115.457 126.088V127.496L115.201 127.08L117.889 127.624V129H110.497ZM119.905 108.488C119.073 108.488 118.294 108.349 117.569 108.072C116.865 107.795 116.289 107.368 115.841 106.792C115.393 106.216 115.137 105.469 115.073 104.552L117.536 104.392C117.601 105.309 117.889 105.981 118.401 106.408C118.934 106.813 119.563 107.016 120.289 107.016C120.993 107.016 121.579 106.813 122.049 106.408C122.518 106.003 122.742 105.363 122.721 104.488L124.673 104.392C124.673 105.331 124.449 106.109 124.001 106.728C123.574 107.325 122.998 107.773 122.273 108.072C121.569 108.349 120.779 108.488 119.905 108.488ZM132.613 129.256C132.314 129.256 132.005 129.224 131.685 129.16C131.365 129.117 131.013 129.043 130.629 128.936L131.013 126.856C131.183 126.877 131.343 126.899 131.493 126.92C131.663 126.941 131.823 126.952 131.973 126.952C133.189 126.952 134.085 126.419 134.661 125.352C135.258 124.264 135.653 122.707 135.845 120.68C136.058 118.653 136.175 116.221 136.197 113.384L136.869 114.152L133.413 113.48V112.104H148.325V113.48L145.253 114.184L145.829 113.384V127.368L145.541 127.016L148.325 127.624V129H140.741V127.624L143.525 127.016L143.269 127.368V113.32L143.717 114.056H137.413L138.213 113.32C138.191 115.816 138.095 118.045 137.925 120.008C137.775 121.971 137.498 123.645 137.093 125.032C136.687 126.397 136.122 127.443 135.397 128.168C134.671 128.893 133.743 129.256 132.613 129.256ZM171.292 113.576V127.368L171.004 127.016L173.788 127.624V129H166.204V127.624L168.988 127.016L168.732 127.368V113.576L169.052 114.12L166.204 113.544V112.2L173.788 112.008V113.352L170.78 114.056L171.292 113.576ZM150.716 129V127.624L153.5 127.016L153.212 127.368V113.576L153.564 114.12L150.716 113.544V112.2L158.652 112.008V113.352L155.292 114.056L155.772 113.576V118.728L155.324 118.344H159.26C161.18 118.344 162.652 118.781 163.676 119.656C164.7 120.531 165.212 121.821 165.212 123.528C165.212 125.256 164.636 126.6 163.484 127.56C162.332 128.52 160.465 129 157.884 129H150.716ZM155.772 127.624L155.324 127.208H157.884C159.505 127.208 160.689 126.909 161.436 126.312C162.183 125.693 162.556 124.787 162.556 123.592C162.556 122.461 162.225 121.608 161.564 121.032C160.924 120.435 159.953 120.136 158.652 120.136H155.324L155.772 119.72V127.624Z" fill="white"/>
<path d="M232.102 203.584L208.416 179.898C208.092 179.573 207.707 179.315 207.283 179.139C206.859 178.963 206.405 178.872 205.946 178.872C205.487 178.872 205.032 178.963 204.608 179.139C204.184 179.315 203.799 179.573 203.475 179.898L198.556 184.817L204.795 191.056C205.531 190.806 206.322 190.767 207.078 190.945C207.835 191.122 208.526 191.508 209.074 192.06C209.622 192.611 210.004 193.305 210.176 194.063C210.349 194.821 210.305 195.611 210.049 196.346L216.056 202.352C216.953 202.043 217.93 202.052 218.822 202.376C219.714 202.7 220.469 203.32 220.959 204.133C221.45 204.945 221.647 205.902 221.518 206.842C221.389 207.783 220.942 208.651 220.251 209.301C219.56 209.952 218.667 210.346 217.72 210.419C216.774 210.491 215.831 210.236 215.049 209.698C214.267 209.159 213.694 208.369 213.424 207.459C213.154 206.549 213.204 205.574 213.566 204.696L207.957 199.087V213.845C208.807 214.266 209.486 214.965 209.883 215.827C210.28 216.688 210.369 217.659 210.137 218.578C209.905 219.498 209.364 220.31 208.606 220.879C207.848 221.449 206.917 221.741 205.97 221.708C205.022 221.674 204.114 221.317 203.398 220.696C202.681 220.075 202.199 219.227 202.032 218.294C201.865 217.36 202.022 216.398 202.479 215.566C202.935 214.735 203.662 214.085 204.539 213.725V198.831C204.032 198.623 203.57 198.317 203.182 197.929C202.794 197.542 202.486 197.082 202.276 196.575C202.066 196.068 201.958 195.525 201.96 194.977C201.961 194.428 202.07 193.885 202.282 193.379L196.14 187.233L179.898 203.481C179.573 203.805 179.314 204.19 179.138 204.615C178.962 205.039 178.871 205.493 178.871 205.953C178.871 206.412 178.962 206.867 179.138 207.291C179.314 207.715 179.573 208.1 179.898 208.424L203.584 232.102C203.908 232.427 204.293 232.685 204.717 232.861C205.141 233.037 205.595 233.128 206.054 233.128C206.513 233.128 206.968 233.037 207.392 232.861C207.816 232.685 208.201 232.427 208.525 232.102L232.102 208.519C232.427 208.195 232.686 207.81 232.862 207.386C233.038 206.961 233.129 206.507 233.129 206.048C233.129 205.588 233.038 205.134 232.862 204.709C232.686 204.285 232.427 203.9 232.102 203.576" fill="#DD4C35"/>
<path d="M198.556 184.817L204.795 191.056C205.531 190.806 206.322 190.767 207.078 190.945C207.835 191.122 208.527 191.508 209.074 192.06C209.622 192.611 210.004 193.305 210.176 194.063C210.349 194.821 210.305 195.611 210.049 196.346L216.056 202.352C216.953 202.043 217.93 202.052 218.822 202.376C219.714 202.7 220.469 203.32 220.959 204.133C221.45 204.945 221.647 205.902 221.518 206.842C221.389 207.783 220.942 208.651 220.251 209.301C219.56 209.952 218.667 210.346 217.72 210.419C216.774 210.491 215.831 210.236 215.049 209.698C214.267 209.159 213.694 208.369 213.424 207.459C213.154 206.549 213.204 205.574 213.566 204.696L207.957 199.087V213.845C208.807 214.266 209.486 214.965 209.883 215.827C210.28 216.688 210.369 217.659 210.137 218.578C209.905 219.498 209.364 220.31 208.606 220.879C207.848 221.449 206.917 221.741 205.97 221.708C205.022 221.674 204.114 221.317 203.398 220.696C202.681 220.075 202.199 219.227 202.032 218.294C201.865 217.36 202.022 216.398 202.479 215.566C202.935 214.735 203.662 214.085 204.539 213.725V198.831C204.032 198.623 203.57 198.317 203.182 197.929C202.794 197.542 202.486 197.082 202.276 196.575C202.066 196.068 201.958 195.525 201.96 194.977C201.961 194.428 202.07 193.885 202.282 193.379L196.14 187.233" fill="white"/>
<path d="M330.976 113.04L327.776 113.776L328.192 113.072V132.528L327.776 131.952L330.976 132.624V134H323.008V132.624L326.272 131.952L325.76 132.528V114.576L326.176 114.608L318.912 128.176L317.152 128.304L310.112 114.544L310.496 114.512V132.528L310.112 131.984L313.28 132.624V134H305.568V132.624L308.768 131.952L308.32 132.528V113.072L308.768 113.776L305.568 113.2V111.824L311.552 111.664L318.496 125.712H318.112L325.28 111.824L330.976 111.664V113.04ZM354.292 118.576V132.368L354.004 132.016L356.788 132.624V134H349.204V132.624L351.988 132.016L351.732 132.368V118.576L352.052 119.12L349.204 118.544V117.2L356.788 117.008V118.352L353.78 119.056L354.292 118.576ZM333.716 134V132.624L336.5 132.016L336.212 132.368V118.576L336.564 119.12L333.716 118.544V117.2L341.652 117.008V118.352L338.292 119.056L338.772 118.576V123.728L338.324 123.344H342.26C344.18 123.344 345.652 123.781 346.676 124.656C347.7 125.531 348.212 126.821 348.212 128.528C348.212 130.256 347.636 131.6 346.484 132.56C345.332 133.52 343.465 134 340.884 134H333.716ZM338.772 132.624L338.324 132.208H340.884C342.505 132.208 343.689 131.909 344.436 131.312C345.183 130.693 345.556 129.787 345.556 128.592C345.556 127.461 345.225 126.608 344.564 126.032C343.924 125.435 342.953 125.136 341.652 125.136H338.324L338.772 124.72V132.624ZM373.079 134.288C371.714 134.288 370.476 133.957 369.367 133.296C368.279 132.613 367.415 131.632 366.775 130.352C366.156 129.072 365.847 127.536 365.847 125.744C365.847 124.187 366.06 122.853 366.487 121.744C366.935 120.613 367.532 119.685 368.279 118.96C369.026 118.235 369.879 117.701 370.839 117.36C371.82 116.997 372.834 116.816 373.879 116.816C374.732 116.816 375.639 116.933 376.599 117.168C377.58 117.403 378.434 117.723 379.159 118.128L379.031 122.128H377.303L376.887 119.12L377.143 119.408C376.61 119.152 376.044 118.971 375.447 118.864C374.85 118.757 374.316 118.704 373.847 118.704C372.738 118.704 371.778 118.992 370.967 119.568C370.178 120.123 369.57 120.912 369.143 121.936C368.716 122.96 368.503 124.176 368.503 125.584C368.503 127.035 368.727 128.261 369.175 129.264C369.623 130.267 370.231 131.024 370.999 131.536C371.788 132.048 372.674 132.304 373.655 132.304C374.423 132.304 375.234 132.144 376.087 131.824C376.94 131.504 377.826 131.024 378.743 130.384L379.639 131.792C378.53 132.645 377.42 133.275 376.311 133.68C375.202 134.085 374.124 134.288 373.079 134.288ZM381.133 139.056L381.037 132.464L383.661 132.048L382.157 132.656C382.904 132.123 383.544 131.515 384.077 130.832C384.632 130.149 385.091 129.296 385.453 128.272C385.816 127.227 386.083 125.925 386.253 124.368C386.445 122.789 386.552 120.859 386.573 118.576L387.245 119.152L383.789 118.48V117.104H398.541V118.48L395.469 119.184L396.013 118.608V132.56L395.469 132.08L399.373 132.528L399.341 139.056H397.709L396.973 133.552L397.581 134H382.765L383.437 133.552L382.733 139.056H381.133ZM384.557 132.528L384.621 132.048H393.965L393.453 132.496V118.448L393.901 119.056H387.917L388.461 118.416C388.461 121.168 388.323 123.472 388.045 125.328C387.789 127.184 387.373 128.688 386.797 129.84C386.243 130.971 385.496 131.867 384.557 132.528ZM408.457 134.288C407.028 134.288 405.758 133.968 404.649 133.328C403.561 132.667 402.708 131.707 402.089 130.448C401.47 129.189 401.161 127.653 401.161 125.84C401.161 123.984 401.481 122.384 402.121 121.04C402.761 119.696 403.668 118.661 404.841 117.936C406.014 117.189 407.39 116.816 408.969 116.816C410.462 116.816 411.689 117.136 412.649 117.776C413.63 118.395 414.356 119.259 414.825 120.368C415.316 121.477 415.561 122.747 415.561 124.176C415.561 124.411 415.55 124.645 415.529 124.88C415.508 125.115 415.476 125.403 415.433 125.744H403.113V123.92H413.193L412.905 124.112C412.926 123.152 412.809 122.267 412.553 121.456C412.297 120.645 411.86 119.995 411.241 119.504C410.622 119.013 409.801 118.768 408.777 118.768C407.689 118.768 406.772 119.056 406.025 119.632C405.278 120.208 404.724 120.997 404.361 122C403.998 123.003 403.817 124.165 403.817 125.488C403.817 126.896 404.02 128.112 404.425 129.136C404.83 130.139 405.417 130.917 406.185 131.472C406.974 132.027 407.934 132.304 409.065 132.304C409.854 132.304 410.718 132.155 411.657 131.856C412.596 131.536 413.566 131.056 414.569 130.416L415.497 131.856C414.302 132.667 413.108 133.275 411.913 133.68C410.718 134.085 409.566 134.288 408.457 134.288ZM418.582 134.256C418.283 134.256 417.974 134.224 417.654 134.16C417.334 134.117 416.982 134.043 416.598 133.936L416.982 131.856C417.152 131.877 417.312 131.899 417.462 131.92C417.632 131.941 417.792 131.952 417.942 131.952C419.158 131.952 420.054 131.419 420.63 130.352C421.227 129.264 421.622 127.707 421.814 125.68C422.027 123.653 422.144 121.221 422.166 118.384L422.838 119.152L419.382 118.48V117.104H434.294V118.48L431.222 119.184L431.798 118.384V132.368L431.51 132.016L434.294 132.624V134H426.71V132.624L429.494 132.016L429.238 132.368V118.32L429.686 119.056H423.382L424.182 118.32C424.16 120.816 424.064 123.045 423.894 125.008C423.744 126.971 423.467 128.645 423.062 130.032C422.656 131.397 422.091 132.443 421.366 133.168C420.64 133.893 419.712 134.256 418.582 134.256ZM449.837 132.56L449.421 131.984L452.365 132.56V133.968L447.885 134.16L447.501 131.088L447.725 131.184C446.786 132.208 445.773 132.987 444.685 133.52C443.597 134.032 442.541 134.288 441.517 134.288C440.279 134.288 439.234 133.893 438.381 133.104C437.527 132.315 437.101 131.12 437.101 129.52C437.101 128.261 437.367 127.301 437.901 126.64C438.434 125.957 439.17 125.477 440.109 125.2C441.047 124.923 442.135 124.784 443.373 124.784H447.565L447.277 125.104V122.032C447.277 120.859 446.967 120.027 446.349 119.536C445.73 119.024 444.877 118.768 443.789 118.768C443.213 118.768 442.594 118.832 441.933 118.96C441.293 119.067 440.61 119.248 439.885 119.504L440.269 119.088L439.949 122H438.253L437.997 118.032C439.213 117.627 440.354 117.328 441.421 117.136C442.487 116.923 443.469 116.816 444.365 116.816C446.071 116.816 447.405 117.2 448.365 117.968C449.346 118.715 449.837 119.92 449.837 121.584V132.56ZM439.693 129.296C439.693 130.341 439.938 131.109 440.429 131.6C440.941 132.091 441.581 132.336 442.349 132.336C443.095 132.336 443.917 132.112 444.813 131.664C445.73 131.195 446.615 130.565 447.469 129.776L447.277 130.448V126.16L447.565 126.448H443.757C442.242 126.448 441.186 126.683 440.589 127.152C439.991 127.6 439.693 128.315 439.693 129.296ZM455.675 134.256C455.377 134.256 455.067 134.224 454.747 134.16C454.427 134.117 454.075 134.043 453.691 133.936L454.075 131.856C454.246 131.877 454.406 131.899 454.555 131.92C454.726 131.941 454.886 131.952 455.035 131.952C456.251 131.952 457.147 131.419 457.723 130.352C458.321 129.264 458.715 127.707 458.907 125.68C459.121 123.653 459.238 121.221 459.259 118.384L459.931 119.152L456.475 118.48V117.104H471.387V118.48L468.315 119.184L468.891 118.384V132.368L468.603 132.016L471.387 132.624V134H463.803V132.624L466.587 132.016L466.331 132.368V118.32L466.779 119.056H460.475L461.275 118.32C461.254 120.816 461.158 123.045 460.987 125.008C460.838 126.971 460.561 128.645 460.155 130.032C459.75 131.397 459.185 132.443 458.459 133.168C457.734 133.893 456.806 134.256 455.675 134.256ZM473.747 134V132.624L476.786 131.92L476.243 132.496V118.64L476.915 119.248L473.747 118.544V117.2L481.139 117.008V118.352L478.099 119.152L478.707 118.576V129.488L478.259 129.456L487.891 119.376L487.603 119.984L487.571 118.64L488.019 119.12L485.139 118.544V117.2L492.531 117.008V118.352L489.458 119.152L490.035 118.576V132.496L489.491 131.92L492.531 132.624V134H485.139V132.624L488.051 131.984L487.571 132.496V121.232L487.987 121.456L478.387 131.664L478.707 131.088V132.496L478.451 132.08L481.139 132.624V134H473.747ZM508.675 134.256C508.377 134.256 508.067 134.224 507.747 134.16C507.427 134.117 507.075 134.043 506.691 133.936L507.075 131.856C507.246 131.877 507.406 131.899 507.555 131.92C507.726 131.941 507.886 131.952 508.035 131.952C509.251 131.952 510.147 131.419 510.723 130.352C511.321 129.264 511.715 127.707 511.907 125.68C512.121 123.653 512.238 121.221 512.259 118.384L512.931 119.152L509.475 118.48V117.104H524.387V118.48L521.315 119.184L521.891 118.384V132.368L521.603 132.016L524.387 132.624V134H516.803V132.624L519.587 132.016L519.331 132.368V118.32L519.779 119.056H513.475L514.275 118.32C514.254 120.816 514.158 123.045 513.987 125.008C513.838 126.971 513.561 128.645 513.155 130.032C512.75 131.397 512.185 132.443 511.459 133.168C510.734 133.893 509.806 134.256 508.675 134.256ZM534.97 116.816C537.317 116.816 539.152 117.552 540.475 119.024C541.819 120.496 542.491 122.576 542.491 125.264C542.491 127.077 542.16 128.667 541.499 130.032C540.859 131.376 539.941 132.421 538.747 133.168C537.552 133.915 536.112 134.288 534.427 134.288C532.123 134.288 530.32 133.573 529.019 132.144C527.717 130.693 527.067 128.613 527.067 125.904C527.067 124.027 527.376 122.416 527.995 121.072C528.635 119.707 529.541 118.661 530.715 117.936C531.909 117.189 533.328 116.816 534.97 116.816ZM534.843 118.704C533.2 118.704 531.941 119.323 531.067 120.56C530.192 121.797 529.755 123.536 529.755 125.776C529.755 127.973 530.171 129.627 531.003 130.736C531.835 131.845 533.029 132.4 534.587 132.4C535.717 132.4 536.667 132.123 537.435 131.568C538.224 130.992 538.811 130.181 539.195 129.136C539.6 128.091 539.803 126.843 539.803 125.392C539.803 123.216 539.365 121.563 538.491 120.432C537.637 119.28 536.421 118.704 534.843 118.704ZM549.249 119.216H549.697V132.592L549.377 132.016L552.097 132.624V134H545.153V132.624L548.033 131.984L547.649 132.592V118.544L548.129 119.216L545.153 118.544V117.2L550.529 117.008L556.545 129.52H555.457L561.569 117.2L566.913 117.008V118.352L563.937 119.152L564.385 118.448V132.56L564.033 131.984L566.913 132.624V134H559.777V132.624L562.497 132.016L562.113 132.464V119.152H562.561L556.513 131.312L555.233 131.408L549.249 119.216ZM582.431 132.56L582.015 131.984L584.958 132.56V133.968L580.479 134.16L580.095 131.088L580.319 131.184C579.38 132.208 578.367 132.987 577.279 133.52C576.191 134.032 575.135 134.288 574.111 134.288C572.873 134.288 571.828 133.893 570.975 133.104C570.121 132.315 569.695 131.12 569.695 129.52C569.695 128.261 569.961 127.301 570.495 126.64C571.028 125.957 571.764 125.477 572.703 125.2C573.641 124.923 574.729 124.784 575.967 124.784H580.159L579.871 125.104V122.032C579.871 120.859 579.561 120.027 578.943 119.536C578.324 119.024 577.471 118.768 576.383 118.768C575.807 118.768 575.188 118.832 574.527 118.96C573.887 119.067 573.204 119.248 572.479 119.504L572.863 119.088L572.543 122H570.847L570.591 118.032C571.807 117.627 572.948 117.328 574.015 117.136C575.081 116.923 576.063 116.816 576.959 116.816C578.665 116.816 579.999 117.2 580.959 117.968C581.94 118.715 582.431 119.92 582.431 121.584V132.56ZM572.286 129.296C572.286 130.341 572.532 131.109 573.023 131.6C573.535 132.091 574.175 132.336 574.943 132.336C575.689 132.336 576.511 132.112 577.407 131.664C578.324 131.195 579.209 130.565 580.063 129.776L579.871 130.448V126.16L580.159 126.448H576.351C574.836 126.448 573.78 126.683 573.183 127.152C572.585 127.6 572.286 128.315 572.286 129.296ZM586.778 134V132.624L589.818 131.92L589.274 132.752V118.416L589.946 119.248L586.778 118.544V117.2L594.266 117.008V118.352L591.226 119.152L591.834 118.384V124.912L591.13 124.208H596.89V126.128H591.13L591.834 125.424V132.752L591.354 131.984L594.266 132.624V134H586.778ZM603.258 116.816C605.498 116.816 607.268 117.541 608.57 118.992C609.892 120.443 610.554 122.523 610.554 125.232C610.554 127.067 610.234 128.667 609.594 130.032C608.975 131.376 608.068 132.421 606.874 133.168C605.7 133.915 604.292 134.288 602.65 134.288C600.452 134.288 598.714 133.584 597.434 132.176C596.154 130.768 595.514 128.688 595.514 125.936C595.514 123.995 595.823 122.352 596.442 121.008C597.082 119.643 597.978 118.608 599.13 117.904C600.303 117.179 601.679 116.816 603.258 116.816ZM603.098 118.704C602.095 118.704 601.22 118.971 600.474 119.504C599.727 120.016 599.151 120.795 598.746 121.84C598.34 122.885 598.138 124.197 598.138 125.776C598.138 127.269 598.33 128.507 598.714 129.488C599.098 130.469 599.642 131.205 600.346 131.696C601.05 132.165 601.882 132.4 602.842 132.4C603.887 132.4 604.783 132.133 605.53 131.6C606.298 131.067 606.884 130.277 607.29 129.232C607.695 128.165 607.898 126.875 607.898 125.36C607.898 123.867 607.695 122.629 607.29 121.648C606.906 120.667 606.351 119.931 605.626 119.44C604.922 118.949 604.079 118.704 603.098 118.704ZM638.335 139.056L637.631 133.552L638.143 134H613.247V132.624L616.286 131.92L615.743 132.752V118.416L616.415 119.248L613.247 118.544V117.2L620.671 117.008V118.352L617.695 119.152L618.303 118.384V132.816L617.599 132.048H625.535L624.927 132.816V118.416L625.375 119.12L622.591 118.544V117.2L629.823 117.008V118.352L626.911 119.152L627.487 118.384V132.912L626.879 132.048H634.815L634.111 132.816V118.416L634.559 119.12L631.743 118.544V117.2L639.167 117.008V118.352L636.095 119.152L636.671 118.384V132.752L636.127 131.92L640.031 132.464L639.967 139.056H638.335ZM649.051 134.288C647.621 134.288 646.352 133.968 645.243 133.328C644.155 132.667 643.301 131.707 642.683 130.448C642.064 129.189 641.755 127.653 641.755 125.84C641.755 123.984 642.075 122.384 642.715 121.04C643.355 119.696 644.261 118.661 645.435 117.936C646.608 117.189 647.984 116.816 649.563 116.816C651.056 116.816 652.283 117.136 653.243 117.776C654.224 118.395 654.949 119.259 655.419 120.368C655.909 121.477 656.155 122.747 656.155 124.176C656.155 124.411 656.144 124.645 656.123 124.88C656.101 125.115 656.069 125.403 656.027 125.744H643.707V123.92H653.787L653.499 124.112C653.52 123.152 653.403 122.267 653.147 121.456C652.891 120.645 652.453 119.995 651.835 119.504C651.216 119.013 650.395 118.768 649.371 118.768C648.283 118.768 647.365 119.056 646.619 119.632C645.872 120.208 645.317 120.997 644.955 122C644.592 123.003 644.411 124.165 644.411 125.488C644.411 126.896 644.613 128.112 645.019 129.136C645.424 130.139 646.011 130.917 646.779 131.472C647.568 132.027 648.528 132.304 649.659 132.304C650.448 132.304 651.312 132.155 652.251 131.856C653.189 131.536 654.16 131.056 655.163 130.416L656.091 131.856C654.896 132.667 653.701 133.275 652.507 133.68C651.312 134.085 650.16 134.288 649.051 134.288ZM666.582 134.288C665.153 134.288 663.883 133.968 662.774 133.328C661.686 132.667 660.833 131.707 660.214 130.448C659.595 129.189 659.286 127.653 659.286 125.84C659.286 123.984 659.606 122.384 660.246 121.04C660.886 119.696 661.793 118.661 662.966 117.936C664.139 117.189 665.515 116.816 667.094 116.816C668.587 116.816 669.814 117.136 670.774 117.776C671.755 118.395 672.481 119.259 672.95 120.368C673.441 121.477 673.686 122.747 673.686 124.176C673.686 124.411 673.675 124.645 673.654 124.88C673.633 125.115 673.601 125.403 673.558 125.744H661.238V123.92H671.318L671.03 124.112C671.051 123.152 670.934 122.267 670.678 121.456C670.422 120.645 669.985 119.995 669.366 119.504C668.747 119.013 667.926 118.768 666.902 118.768C665.814 118.768 664.897 119.056 664.15 119.632C663.403 120.208 662.849 120.997 662.486 122C662.123 123.003 661.942 124.165 661.942 125.488C661.942 126.896 662.145 128.112 662.55 129.136C662.955 130.139 663.542 130.917 664.31 131.472C665.099 132.027 666.059 132.304 667.19 132.304C667.979 132.304 668.843 132.155 669.782 131.856C670.721 131.536 671.691 131.056 672.694 130.416L673.622 131.856C672.427 132.667 671.233 133.275 670.038 133.68C668.843 134.085 667.691 134.288 666.582 134.288ZM682.872 134V132.624L685.911 131.92L685.368 132.496V118.64L686.04 119.248L682.872 118.544V117.2L690.264 117.008V118.352L687.224 119.152L687.832 118.576V129.488L687.384 129.456L697.016 119.376L696.728 119.984L696.696 118.64L697.144 119.12L694.264 118.544V117.2L701.656 117.008V118.352L698.583 119.152L699.16 118.576V132.496L698.616 131.92L701.656 132.624V134H694.264V132.624L697.176 131.984L696.696 132.496V121.232L697.112 121.456L687.512 131.664L687.832 131.088V132.496L687.576 132.08L690.264 132.624V134H682.872ZM709.66 134.288C708.678 134.288 707.697 134.171 706.716 133.936C705.734 133.701 704.828 133.349 703.996 132.88L704.604 131.216C705.35 131.621 706.15 131.941 707.004 132.176C707.878 132.389 708.721 132.496 709.532 132.496C710.364 132.496 711.132 132.379 711.836 132.144C712.561 131.909 713.137 131.547 713.564 131.056C713.99 130.565 714.204 129.925 714.204 129.136C714.204 128.539 714.054 128.005 713.756 127.536C713.457 127.067 712.956 126.693 712.252 126.416C711.569 126.139 710.641 126 709.468 126H707.356V124.4H709.468C711.004 124.4 712.124 124.133 712.828 123.6C713.532 123.045 713.884 122.309 713.884 121.392C713.884 120.368 713.51 119.643 712.764 119.216C712.038 118.789 711.121 118.576 710.012 118.576C709.393 118.576 708.753 118.629 708.092 118.736C707.43 118.843 706.758 118.981 706.076 119.152L706.684 118.512L706.268 121.584H704.572L704.444 117.776C705.468 117.477 706.481 117.243 707.484 117.072C708.508 116.901 709.489 116.816 710.428 116.816C711.558 116.816 712.582 116.965 713.5 117.264C714.417 117.541 715.132 118 715.644 118.64C716.177 119.259 716.444 120.069 716.444 121.072C716.444 122.309 716.038 123.269 715.228 123.952C714.438 124.613 713.19 125.04 711.484 125.232L711.42 125.008C713.318 125.093 714.694 125.52 715.548 126.288C716.422 127.035 716.86 128.016 716.86 129.232C716.86 130.384 716.518 131.344 715.836 132.112C715.153 132.859 714.268 133.413 713.18 133.776C712.092 134.117 710.918 134.288 709.66 134.288ZM723.53 119.216H723.978V132.592L723.658 132.016L726.378 132.624V134H719.434V132.624L722.314 131.984L721.93 132.592V118.544L722.41 119.216L719.434 118.544V117.2L724.81 117.008L730.826 129.52H729.738L735.85 117.2L741.194 117.008V118.352L738.218 119.152L738.666 118.448V132.56L738.314 131.984L741.194 132.624V134H734.058V132.624L736.778 132.016L736.394 132.464V119.152H736.842L730.794 131.312L729.514 131.408L723.53 119.216ZM751.176 134.288C749.746 134.288 748.477 133.968 747.368 133.328C746.28 132.667 745.426 131.707 744.808 130.448C744.189 129.189 743.88 127.653 743.88 125.84C743.88 123.984 744.2 122.384 744.84 121.04C745.48 119.696 746.386 118.661 747.56 117.936C748.733 117.189 750.109 116.816 751.688 116.816C753.181 116.816 754.408 117.136 755.368 117.776C756.349 118.395 757.074 119.259 757.544 120.368C758.034 121.477 758.28 122.747 758.28 124.176C758.28 124.411 758.269 124.645 758.248 124.88C758.226 125.115 758.194 125.403 758.152 125.744H745.832V123.92H755.912L755.624 124.112C755.645 123.152 755.528 122.267 755.272 121.456C755.016 120.645 754.578 119.995 753.96 119.504C753.341 119.013 752.52 118.768 751.496 118.768C750.408 118.768 749.49 119.056 748.744 119.632C747.997 120.208 747.442 120.997 747.08 122C746.717 123.003 746.536 124.165 746.536 125.488C746.536 126.896 746.738 128.112 747.144 129.136C747.549 130.139 748.136 130.917 748.904 131.472C749.693 132.027 750.653 132.304 751.784 132.304C752.573 132.304 753.437 132.155 754.376 131.856C755.314 131.536 756.285 131.056 757.288 130.416L758.216 131.856C757.021 132.667 755.826 133.275 754.632 133.68C753.437 134.085 752.285 134.288 751.176 134.288ZM761.059 134V132.624L764.099 131.92L763.555 132.752V118.416L764.227 119.248L761.059 118.544V117.2L768.547 117.008V118.352L765.507 119.152L766.115 118.384V124.912L765.411 124.208H775.523L774.787 124.912V118.416L775.235 119.12L772.355 118.544V117.2L779.875 117.008V118.352L776.803 119.152L777.347 118.384V132.752L776.803 131.92L779.875 132.624V134H772.355V132.624L775.267 131.984L774.787 132.752V125.424L775.523 126.128H765.411L766.115 125.424V132.752L765.635 131.984L768.547 132.624V134H761.059ZM789.863 134.288C788.434 134.288 787.165 133.968 786.055 133.328C784.967 132.667 784.114 131.707 783.495 130.448C782.877 129.189 782.567 127.653 782.567 125.84C782.567 123.984 782.887 122.384 783.527 121.04C784.167 119.696 785.074 118.661 786.247 117.936C787.421 117.189 788.797 116.816 790.375 116.816C791.869 116.816 793.095 117.136 794.055 117.776C795.037 118.395 795.762 119.259 796.231 120.368C796.722 121.477 796.967 122.747 796.967 124.176C796.967 124.411 796.957 124.645 796.935 124.88C796.914 125.115 796.882 125.403 796.839 125.744H784.519V123.92H794.599L794.311 124.112C794.333 123.152 794.215 122.267 793.959 121.456C793.703 120.645 793.266 119.995 792.647 119.504C792.029 119.013 791.207 118.768 790.183 118.768C789.095 118.768 788.178 119.056 787.431 119.632C786.685 120.208 786.13 120.997 785.767 122C785.405 123.003 785.223 124.165 785.223 125.488C785.223 126.896 785.426 128.112 785.831 129.136C786.237 130.139 786.823 130.917 787.591 131.472C788.381 132.027 789.341 132.304 790.471 132.304C791.261 132.304 792.125 132.155 793.063 131.856C794.002 131.536 794.973 131.056 795.975 130.416L796.903 131.856C795.709 132.667 794.514 133.275 793.319 133.68C792.125 134.085 790.973 134.288 789.863 134.288ZM799.747 134V132.624L802.786 131.92L802.243 132.752V118.416L802.915 119.248L799.747 118.544V117.2L807.235 117.008V118.352L804.195 119.152L804.803 118.384V124.912L804.099 124.208H814.211L813.475 124.912V118.416L813.923 119.12L811.043 118.544V117.2L818.562 117.008V118.352L815.491 119.152L816.035 118.384V132.752L815.491 131.92L818.562 132.624V134H811.043V132.624L813.955 131.984L813.475 132.752V125.424L814.211 126.128H804.099L804.803 125.424V132.752L804.323 131.984L807.235 132.624V134H799.747ZM820.903 134V132.624L823.943 131.92L823.399 132.496V118.64L824.071 119.248L820.903 118.544V117.2L828.295 117.008V118.352L825.255 119.152L825.863 118.576V129.488L825.415 129.456L835.047 119.376L834.759 119.984L834.727 118.64L835.175 119.12L832.295 118.544V117.2L839.687 117.008V118.352L836.615 119.152L837.191 118.576V132.496L836.647 131.92L839.687 132.624V134H832.295V132.624L835.207 131.984L834.727 132.496V121.232L835.143 121.456L825.543 131.664L825.863 131.088V132.496L825.607 132.08L828.295 132.624V134H820.903ZM849.707 134.288C848.278 134.288 847.008 133.968 845.899 133.328C844.811 132.667 843.958 131.707 843.339 130.448C842.72 129.189 842.411 127.653 842.411 125.84C842.411 123.984 842.731 122.384 843.371 121.04C844.011 119.696 844.918 118.661 846.091 117.936C847.264 117.189 848.64 116.816 850.219 116.816C851.712 116.816 852.939 117.136 853.899 117.776C854.88 118.395 855.606 119.259 856.075 120.368C856.566 121.477 856.811 122.747 856.811 124.176C856.811 124.411 856.8 124.645 856.779 124.88C856.758 125.115 856.726 125.403 856.683 125.744H844.363V123.92H854.443L854.155 124.112C854.176 123.152 854.059 122.267 853.803 121.456C853.547 120.645 853.11 119.995 852.491 119.504C851.872 119.013 851.051 118.768 850.027 118.768C848.939 118.768 848.022 119.056 847.275 119.632C846.528 120.208 845.974 120.997 845.611 122C845.248 123.003 845.067 124.165 845.067 125.488C845.067 126.896 845.27 128.112 845.675 129.136C846.08 130.139 846.667 130.917 847.435 131.472C848.224 132.027 849.184 132.304 850.315 132.304C851.104 132.304 851.968 132.155 852.907 131.856C853.846 131.536 854.816 131.056 855.819 130.416L856.747 131.856C855.552 132.667 854.358 133.275 853.163 133.68C851.968 134.085 850.816 134.288 849.707 134.288ZM862.758 126.928L862.342 111.664H865.126L864.71 126.8L862.758 126.928ZM862.054 132.496C862.054 131.984 862.214 131.579 862.534 131.28C862.876 130.981 863.27 130.832 863.718 130.832C864.23 130.832 864.636 130.981 864.934 131.28C865.254 131.579 865.414 131.984 865.414 132.496C865.414 133.008 865.244 133.413 864.902 133.712C864.561 134.011 864.166 134.16 863.718 134.16C863.228 134.16 862.822 134.011 862.502 133.712C862.204 133.413 862.054 133.008 862.054 132.496Z" fill="black"/>
</svg>
