<svg width="816" height="246" viewBox="0 0 816 246" fill="none" xmlns="http://www.w3.org/2000/svg">
<rect width="246" height="246" fill="#2E2C2C"/>
<path d="M83.64 106.984L80.504 107.624L80.856 107.272V128.072L80.504 127.688L83.64 128.296V129.64H75.864V128.296L78.968 127.72L78.648 128.072V107.272L79.032 107.624L75.864 107.144V105.8L83.64 105.64V106.984ZM79.32 125.64C77.1013 125.64 75.1813 125.384 73.56 124.872C71.96 124.339 70.7227 123.496 69.848 122.344C68.9947 121.192 68.568 119.688 68.568 117.832C68.568 115.891 69.0373 114.323 69.976 113.128C70.9147 111.912 72.2267 111.037 73.912 110.504C75.6187 109.949 77.6347 109.672 79.96 109.672C81.6453 109.672 83.16 109.821 84.504 110.12C85.8693 110.397 87.0213 110.845 87.96 111.464C88.92 112.061 89.656 112.851 90.168 113.832C90.68 114.813 90.936 115.997 90.936 117.384C90.936 119.261 90.4667 120.819 89.528 122.056C88.6107 123.272 87.2773 124.179 85.528 124.776C83.8 125.352 81.7307 125.64 79.32 125.64ZM79.512 124.04C81.2827 124.061 82.808 123.869 84.088 123.464C85.3893 123.059 86.4027 122.376 87.128 121.416C87.8533 120.435 88.216 119.123 88.216 117.48C88.216 115.923 87.8747 114.696 87.192 113.8C86.5307 112.883 85.5707 112.232 84.312 111.848C83.0747 111.464 81.5707 111.272 79.8 111.272C78.0933 111.272 76.6 111.464 75.32 111.848C74.04 112.232 73.048 112.893 72.344 113.832C71.64 114.771 71.288 116.072 71.288 117.736C71.288 119.293 71.608 120.531 72.248 121.448C72.9093 122.365 73.8587 123.027 75.096 123.432C76.3333 123.837 77.8053 124.04 79.512 124.04ZM106.149 127.56L105.733 126.984L108.677 127.56V128.968L104.197 129.16L103.813 126.088L104.037 126.184C103.099 127.208 102.085 127.987 100.997 128.52C99.9093 129.032 98.8533 129.288 97.8293 129.288C96.5919 129.288 95.5466 128.893 94.6933 128.104C93.8399 127.315 93.4133 126.12 93.4133 124.52C93.4133 123.261 93.6799 122.301 94.2133 121.64C94.7466 120.957 95.4826 120.477 96.4213 120.2C97.3599 119.923 98.4479 119.784 99.6853 119.784H103.877L103.589 120.104V117.032C103.589 115.859 103.28 115.027 102.661 114.536C102.043 114.024 101.189 113.768 100.101 113.768C99.5253 113.768 98.9066 113.832 98.2453 113.96C97.6053 114.067 96.9226 114.248 96.1973 114.504L96.5813 114.088L96.2613 117H94.5653L94.3093 113.032C95.5253 112.627 96.6666 112.328 97.7333 112.136C98.7999 111.923 99.7813 111.816 100.677 111.816C102.384 111.816 103.717 112.2 104.677 112.968C105.659 113.715 106.149 114.92 106.149 116.584V127.56ZM96.0052 124.296C96.0052 125.341 96.2506 126.109 96.7413 126.6C97.2533 127.091 97.8933 127.336 98.6613 127.336C99.4079 127.336 100.229 127.112 101.125 126.664C102.043 126.195 102.928 125.565 103.781 124.776L103.589 125.448V121.16L103.877 121.448H100.069C98.5546 121.448 97.4986 121.683 96.9013 122.152C96.3039 122.6 96.0052 123.315 96.0052 124.296ZM110.497 129V127.624L113.536 126.92L112.993 127.496V113.64L113.665 114.248L110.497 113.544V112.2L117.889 112.008V113.352L114.849 114.152L115.457 113.576V124.488L115.009 124.456L124.641 114.376L124.353 114.984L124.321 113.64L124.769 114.12L121.889 113.544V112.2L129.281 112.008V113.352L126.208 114.152L126.785 113.576V127.496L126.241 126.92L129.281 127.624V129H121.889V127.624L124.801 126.984L124.321 127.496V116.232L124.737 116.456L115.137 126.664L115.457 126.088V127.496L115.201 127.08L117.889 127.624V129H110.497ZM119.905 108.488C119.073 108.488 118.294 108.349 117.569 108.072C116.865 107.795 116.289 107.368 115.841 106.792C115.393 106.216 115.137 105.469 115.073 104.552L117.536 104.392C117.601 105.309 117.889 105.981 118.401 106.408C118.934 106.813 119.563 107.016 120.289 107.016C120.993 107.016 121.579 106.813 122.049 106.408C122.518 106.003 122.742 105.363 122.721 104.488L124.673 104.392C124.673 105.331 124.449 106.109 124.001 106.728C123.574 107.325 122.998 107.773 122.273 108.072C121.569 108.349 120.779 108.488 119.905 108.488ZM132.613 129.256C132.314 129.256 132.005 129.224 131.685 129.16C131.365 129.117 131.013 129.043 130.629 128.936L131.013 126.856C131.183 126.877 131.343 126.899 131.493 126.92C131.663 126.941 131.823 126.952 131.973 126.952C133.189 126.952 134.085 126.419 134.661 125.352C135.258 124.264 135.653 122.707 135.845 120.68C136.058 118.653 136.175 116.221 136.197 113.384L136.869 114.152L133.413 113.48V112.104H148.325V113.48L145.253 114.184L145.829 113.384V127.368L145.541 127.016L148.325 127.624V129H140.741V127.624L143.525 127.016L143.269 127.368V113.32L143.717 114.056H137.413L138.213 113.32C138.191 115.816 138.095 118.045 137.925 120.008C137.775 121.971 137.498 123.645 137.093 125.032C136.687 126.397 136.122 127.443 135.397 128.168C134.671 128.893 133.743 129.256 132.613 129.256ZM171.292 113.576V127.368L171.004 127.016L173.788 127.624V129H166.204V127.624L168.988 127.016L168.732 127.368V113.576L169.052 114.12L166.204 113.544V112.2L173.788 112.008V113.352L170.78 114.056L171.292 113.576ZM150.716 129V127.624L153.5 127.016L153.212 127.368V113.576L153.564 114.12L150.716 113.544V112.2L158.652 112.008V113.352L155.292 114.056L155.772 113.576V118.728L155.324 118.344H159.26C161.18 118.344 162.652 118.781 163.676 119.656C164.7 120.531 165.212 121.821 165.212 123.528C165.212 125.256 164.636 126.6 163.484 127.56C162.332 128.52 160.465 129 157.884 129H150.716ZM155.772 127.624L155.324 127.208H157.884C159.505 127.208 160.689 126.909 161.436 126.312C162.183 125.693 162.556 124.787 162.556 123.592C162.556 122.461 162.225 121.608 161.564 121.032C160.924 120.435 159.953 120.136 158.652 120.136H155.324L155.772 119.72V127.624Z" fill="white"/>
<path d="M232.102 203.584L208.416 179.898C208.092 179.573 207.707 179.315 207.283 179.139C206.859 178.963 206.405 178.872 205.946 178.872C205.487 178.872 205.032 178.963 204.608 179.139C204.184 179.315 203.799 179.573 203.475 179.898L198.556 184.817L204.795 191.056C205.531 190.806 206.322 190.767 207.078 190.944C207.835 191.122 208.526 191.508 209.074 192.06C209.622 192.611 210.004 193.305 210.176 194.063C210.349 194.82 210.305 195.611 210.049 196.345L216.056 202.352C216.953 202.043 217.93 202.052 218.822 202.376C219.714 202.7 220.469 203.32 220.959 204.133C221.45 204.945 221.647 205.902 221.518 206.842C221.389 207.783 220.942 208.65 220.251 209.301C219.56 209.952 218.667 210.346 217.72 210.418C216.774 210.491 215.831 210.236 215.049 209.698C214.267 209.159 213.694 208.369 213.424 207.459C213.154 206.549 213.204 205.574 213.566 204.696L207.957 199.087V213.845C208.807 214.266 209.486 214.965 209.883 215.827C210.28 216.688 210.369 217.659 210.137 218.578C209.905 219.498 209.364 220.31 208.606 220.879C207.848 221.448 206.917 221.741 205.97 221.707C205.022 221.674 204.114 221.317 203.398 220.696C202.681 220.075 202.199 219.227 202.032 218.294C201.865 217.36 202.022 216.398 202.479 215.566C202.935 214.735 203.662 214.085 204.539 213.725V198.831C204.032 198.623 203.57 198.316 203.182 197.929C202.794 197.542 202.486 197.082 202.276 196.575C202.066 196.068 201.958 195.525 201.96 194.976C201.961 194.428 202.07 193.885 202.282 193.379L196.14 187.233L179.898 203.481C179.573 203.805 179.314 204.19 179.138 204.614C178.962 205.039 178.871 205.493 178.871 205.952C178.871 206.412 178.962 206.866 179.138 207.291C179.314 207.715 179.573 208.1 179.898 208.424L203.584 232.102C203.908 232.427 204.293 232.685 204.717 232.861C205.141 233.037 205.595 233.128 206.054 233.128C206.513 233.128 206.968 233.037 207.392 232.861C207.816 232.685 208.201 232.427 208.525 232.102L232.102 208.519C232.427 208.195 232.686 207.81 232.862 207.385C233.038 206.961 233.129 206.507 233.129 206.047C233.129 205.588 233.038 205.133 232.862 204.709C232.686 204.285 232.427 203.9 232.102 203.576" fill="#DD4C35"/>
<path d="M198.556 184.817L204.795 191.056C205.531 190.806 206.322 190.767 207.078 190.944C207.835 191.122 208.526 191.508 209.074 192.06C209.622 192.611 210.004 193.305 210.176 194.063C210.349 194.82 210.305 195.611 210.049 196.345L216.056 202.352C216.953 202.043 217.93 202.052 218.822 202.376C219.714 202.7 220.469 203.32 220.959 204.133C221.45 204.945 221.647 205.902 221.518 206.842C221.389 207.783 220.942 208.651 220.251 209.301C219.56 209.952 218.667 210.346 217.72 210.419C216.774 210.491 215.831 210.236 215.049 209.698C214.267 209.159 213.694 208.369 213.424 207.459C213.154 206.549 213.204 205.574 213.566 204.696L207.957 199.087V213.845C208.807 214.266 209.486 214.965 209.883 215.827C210.28 216.688 210.369 217.659 210.137 218.578C209.905 219.498 209.364 220.31 208.606 220.879C207.848 221.448 206.917 221.741 205.97 221.707C205.022 221.674 204.114 221.317 203.398 220.696C202.681 220.075 202.199 219.227 202.032 218.294C201.865 217.36 202.022 216.398 202.479 215.566C202.935 214.735 203.662 214.085 204.539 213.725V198.831C204.032 198.623 203.57 198.316 203.182 197.929C202.794 197.542 202.486 197.082 202.276 196.575C202.066 196.068 201.958 195.525 201.959 194.976C201.961 194.428 202.07 193.885 202.282 193.379L196.14 187.233" fill="white"/>
<rect x="566" width="250" height="246" fill="#2E2C2C"/>
<path d="M615.344 120.456H612.368L612.944 119.976V127.528L612.496 126.984L616.464 127.624V129H607.568V127.624L610.8 126.952L610.32 127.528V108.168L610.864 108.776L607.568 108.2V106.824L613.008 106.664H616.624C618.267 106.664 619.621 106.941 620.688 107.496C621.755 108.051 622.555 108.819 623.088 109.8C623.621 110.781 623.888 111.923 623.888 113.224C623.888 114.653 623.568 115.912 622.928 117C622.288 118.088 621.328 118.941 620.048 119.56C618.789 120.157 617.221 120.456 615.344 120.456ZM616.24 108.616H612.464L612.944 108.136V118.984L612.368 118.504H615.344C617.221 118.504 618.661 118.035 619.664 117.096C620.688 116.157 621.2 114.888 621.2 113.288C621.2 111.837 620.773 110.696 619.92 109.864C619.088 109.032 617.861 108.616 616.24 108.616ZM633.363 129.288C631.934 129.288 630.665 128.968 629.555 128.328C628.467 127.667 627.614 126.707 626.995 125.448C626.377 124.189 626.067 122.653 626.067 120.84C626.067 118.984 626.387 117.384 627.027 116.04C627.667 114.696 628.574 113.661 629.747 112.936C630.921 112.189 632.297 111.816 633.875 111.816C635.369 111.816 636.595 112.136 637.555 112.776C638.537 113.395 639.262 114.259 639.731 115.368C640.222 116.477 640.467 117.747 640.467 119.176C640.467 119.411 640.457 119.645 640.435 119.88C640.414 120.115 640.382 120.403 640.339 120.744H628.019V118.92H638.099L637.811 119.112C637.833 118.152 637.715 117.267 637.459 116.456C637.203 115.645 636.766 114.995 636.147 114.504C635.529 114.013 634.707 113.768 633.683 113.768C632.595 113.768 631.678 114.056 630.931 114.632C630.185 115.208 629.63 115.997 629.267 117C628.905 118.003 628.723 119.165 628.723 120.488C628.723 121.896 628.926 123.112 629.331 124.136C629.737 125.139 630.323 125.917 631.091 126.472C631.881 127.027 632.841 127.304 633.971 127.304C634.761 127.304 635.625 127.155 636.563 126.856C637.502 126.536 638.473 126.056 639.475 125.416L640.403 126.856C639.209 127.667 638.014 128.275 636.819 128.68C635.625 129.085 634.473 129.288 633.363 129.288ZM641.758 134.056L641.662 127.464L644.286 127.048L642.782 127.656C643.529 127.123 644.169 126.515 644.702 125.832C645.257 125.149 645.716 124.296 646.078 123.272C646.441 122.227 646.708 120.925 646.878 119.368C647.07 117.789 647.177 115.859 647.198 113.576L647.87 114.152L644.414 113.48V112.104H659.166V113.48L656.094 114.184L656.638 113.608V127.56L656.094 127.08L659.998 127.528L659.966 134.056H658.334L657.598 128.552L658.206 129H643.39L644.062 128.552L643.358 134.056H641.758ZM645.182 127.528L645.246 127.048H654.59L654.078 127.496V113.448L654.526 114.056H648.542L649.086 113.416C649.086 116.168 648.948 118.472 648.67 120.328C648.414 122.184 647.998 123.688 647.422 124.84C646.868 125.971 646.121 126.867 645.182 127.528ZM675.087 127.56L674.671 126.984L677.615 127.56V128.968L673.135 129.16L672.751 126.088L672.975 126.184C672.036 127.208 671.023 127.987 669.935 128.52C668.847 129.032 667.791 129.288 666.767 129.288C665.529 129.288 664.484 128.893 663.631 128.104C662.777 127.315 662.351 126.12 662.351 124.52C662.351 123.261 662.617 122.301 663.151 121.64C663.684 120.957 664.42 120.477 665.359 120.2C666.297 119.923 667.385 119.784 668.623 119.784H672.815L672.527 120.104V117.032C672.527 115.859 672.217 115.027 671.599 114.536C670.98 114.024 670.127 113.768 669.039 113.768C668.463 113.768 667.844 113.832 667.183 113.96C666.543 114.067 665.86 114.248 665.135 114.504L665.519 114.088L665.199 117H663.503L663.247 113.032C664.463 112.627 665.604 112.328 666.671 112.136C667.737 111.923 668.719 111.816 669.615 111.816C671.321 111.816 672.655 112.2 673.615 112.968C674.596 113.715 675.087 114.92 675.087 116.584V127.56ZM664.943 124.296C664.943 125.341 665.188 126.109 665.679 126.6C666.191 127.091 666.831 127.336 667.599 127.336C668.345 127.336 669.167 127.112 670.063 126.664C670.98 126.195 671.865 125.565 672.719 124.776L672.527 125.448V121.16L672.815 121.448H669.007C667.492 121.448 666.436 121.683 665.839 122.152C665.241 122.6 664.943 123.315 664.943 124.296ZM679.434 129V127.624L682.314 126.984L681.93 127.528V113.544L682.346 114.12L679.434 113.544V112.2L686.858 112.008V113.352L684.17 114.024L684.49 113.544V119.816L684.01 119.24H688.554L687.69 119.72L691.338 113.608L691.562 113.96L688.906 113.576V112.2L695.946 111.976V113.352L693.098 113.928L693.834 113.448L689.674 120.36L689.834 119.592L694.602 127.432L694.186 127.08L696.842 127.624V129H692.778L687.978 120.872L688.49 121.032H684.01L684.49 120.84V127.528L684.17 126.984L687.242 127.624V129H679.434ZM700.593 129V127.624L704.145 127.048L703.569 127.72V113.608L704.177 114.056H698.737L699.313 113.512L698.737 117.032H697.137V112.104H712.561V117.032H710.961L710.385 113.608L710.929 114.056H705.585L706.129 113.608V127.72L705.649 127.048L709.169 127.624V129H700.593ZM721.752 111.816C724.098 111.816 725.933 112.552 727.256 114.024C728.6 115.496 729.272 117.576 729.272 120.264C729.272 122.077 728.941 123.667 728.28 125.032C727.64 126.376 726.722 127.421 725.528 128.168C724.333 128.915 722.893 129.288 721.208 129.288C718.904 129.288 717.101 128.573 715.8 127.144C714.498 125.693 713.848 123.613 713.848 120.904C713.848 119.027 714.157 117.416 714.776 116.072C715.416 114.707 716.322 113.661 717.496 112.936C718.69 112.189 720.109 111.816 721.752 111.816ZM721.624 113.704C719.981 113.704 718.722 114.323 717.848 115.56C716.973 116.797 716.536 118.536 716.536 120.776C716.536 122.973 716.952 124.627 717.784 125.736C718.616 126.845 719.81 127.4 721.368 127.4C722.498 127.4 723.448 127.123 724.216 126.568C725.005 125.992 725.592 125.181 725.976 124.136C726.381 123.091 726.584 121.843 726.584 120.392C726.584 118.216 726.146 116.563 725.272 115.432C724.418 114.28 723.202 113.704 721.624 113.704ZM731.614 136.36V134.984L734.526 134.312L734.11 134.792V113.768L734.494 114.184L731.614 113.576V112.2L736.094 111.976L736.414 114.76L736.126 114.568C737.107 113.651 738.089 112.968 739.07 112.52C740.051 112.051 741.022 111.816 741.982 111.816C743.177 111.816 744.243 112.147 745.182 112.808C746.142 113.469 746.899 114.429 747.454 115.688C748.009 116.925 748.286 118.451 748.286 120.264C748.286 122.227 747.945 123.88 747.262 125.224C746.601 126.568 745.662 127.592 744.446 128.296C743.23 128.979 741.801 129.32 740.158 129.32C739.561 129.32 738.942 129.267 738.302 129.16C737.662 129.053 736.99 128.915 736.286 128.744L736.67 128.392V134.792L736.318 134.344L739.614 134.984V136.36H731.614ZM739.87 127.4C741.747 127.4 743.177 126.792 744.158 125.576C745.139 124.36 745.63 122.675 745.63 120.52C745.63 119.112 745.427 117.907 745.022 116.904C744.638 115.901 744.105 115.133 743.422 114.6C742.739 114.045 741.961 113.768 741.086 113.768C740.339 113.768 739.561 113.971 738.75 114.376C737.961 114.76 737.161 115.357 736.35 116.168L736.67 115.368V127.368L736.318 126.792C737.619 127.197 738.803 127.4 739.87 127.4ZM771.605 113.576V127.368L771.317 127.016L774.101 127.624V129H766.517V127.624L769.301 127.016L769.045 127.368V113.576L769.365 114.12L766.517 113.544V112.2L774.101 112.008V113.352L771.093 114.056L771.605 113.576ZM751.029 129V127.624L753.812 127.016L753.525 127.368V113.576L753.877 114.12L751.029 113.544V112.2L758.965 112.008V113.352L755.605 114.056L756.085 113.576V118.728L755.637 118.344H759.573C761.493 118.344 762.965 118.781 763.989 119.656C765.013 120.531 765.525 121.821 765.525 123.528C765.525 125.256 764.949 126.6 763.797 127.56C762.645 128.52 760.778 129 758.197 129H751.029ZM756.085 127.624L755.637 127.208H758.197C759.818 127.208 761.002 126.909 761.749 126.312C762.495 125.693 762.869 124.787 762.869 123.592C762.869 122.461 762.538 121.608 761.877 121.032C761.237 120.435 760.266 120.136 758.965 120.136H755.637L756.085 119.72V127.624Z" fill="white"/>
<path d="M795.102 203.584L771.416 179.898C771.092 179.573 770.707 179.315 770.283 179.139C769.859 178.963 769.405 178.872 768.946 178.872C768.487 178.872 768.032 178.963 767.608 179.139C767.184 179.315 766.799 179.573 766.475 179.898L761.556 184.817L767.795 191.056C768.531 190.806 769.322 190.767 770.078 190.944C770.835 191.122 771.526 191.508 772.074 192.06C772.622 192.611 773.004 193.305 773.176 194.063C773.349 194.82 773.305 195.611 773.049 196.345L779.056 202.352C779.953 202.043 780.93 202.052 781.822 202.376C782.714 202.7 783.469 203.32 783.959 204.133C784.45 204.945 784.647 205.902 784.518 206.842C784.389 207.783 783.942 208.65 783.251 209.301C782.56 209.952 781.667 210.346 780.72 210.418C779.774 210.491 778.831 210.236 778.049 209.698C777.267 209.159 776.694 208.369 776.424 207.459C776.154 206.549 776.204 205.574 776.566 204.696L770.957 199.087V213.845C771.807 214.266 772.486 214.965 772.883 215.827C773.28 216.688 773.369 217.659 773.137 218.578C772.905 219.498 772.364 220.31 771.606 220.879C770.848 221.448 769.917 221.741 768.97 221.707C768.022 221.674 767.114 221.317 766.398 220.696C765.681 220.075 765.199 219.227 765.032 218.294C764.865 217.36 765.022 216.398 765.479 215.566C765.935 214.735 766.662 214.085 767.539 213.725V198.831C767.032 198.623 766.57 198.316 766.182 197.929C765.794 197.542 765.486 197.082 765.276 196.575C765.066 196.068 764.958 195.525 764.96 194.976C764.961 194.428 765.07 193.885 765.282 193.379L759.14 187.233L742.898 203.481C742.573 203.805 742.314 204.19 742.138 204.614C741.962 205.039 741.871 205.493 741.871 205.952C741.871 206.412 741.962 206.866 742.138 207.291C742.314 207.715 742.573 208.1 742.898 208.424L766.584 232.102C766.908 232.427 767.293 232.685 767.717 232.861C768.141 233.037 768.595 233.128 769.054 233.128C769.513 233.128 769.968 233.037 770.392 232.861C770.816 232.685 771.201 232.427 771.525 232.102L795.102 208.519C795.427 208.195 795.686 207.81 795.862 207.385C796.038 206.961 796.129 206.507 796.129 206.047C796.129 205.588 796.038 205.133 795.862 204.709C795.686 204.285 795.427 203.9 795.102 203.576" fill="#DD4C35"/>
<path d="M761.556 184.817L767.795 191.056C768.531 190.806 769.322 190.767 770.078 190.944C770.835 191.122 771.527 191.508 772.074 192.06C772.622 192.611 773.004 193.305 773.176 194.063C773.349 194.82 773.305 195.611 773.049 196.345L779.056 202.352C779.953 202.043 780.93 202.052 781.822 202.376C782.714 202.7 783.469 203.32 783.959 204.133C784.45 204.945 784.647 205.902 784.518 206.842C784.389 207.783 783.942 208.651 783.251 209.301C782.56 209.952 781.667 210.346 780.72 210.419C779.774 210.491 778.831 210.236 778.049 209.698C777.267 209.159 776.694 208.369 776.424 207.459C776.154 206.549 776.204 205.574 776.566 204.696L770.957 199.087V213.845C771.807 214.266 772.486 214.965 772.883 215.827C773.28 216.688 773.369 217.659 773.137 218.578C772.905 219.498 772.364 220.31 771.606 220.879C770.848 221.448 769.917 221.741 768.97 221.707C768.022 221.674 767.114 221.317 766.398 220.696C765.681 220.075 765.199 219.227 765.032 218.294C764.865 217.36 765.022 216.398 765.479 215.566C765.935 214.735 766.662 214.085 767.539 213.725V198.831C767.032 198.623 766.57 198.316 766.182 197.929C765.794 197.542 765.486 197.082 765.276 196.575C765.066 196.068 764.958 195.525 764.96 194.976C764.961 194.428 765.07 193.885 765.282 193.379L759.14 187.233" fill="white"/>
<rect x="281" width="250" height="246" fill="#A33030"/>
<path d="M348.2 129.288C346.493 129.288 344.936 128.851 343.528 127.976C342.12 127.101 341 125.821 340.168 124.136C339.357 122.451 338.952 120.381 338.952 117.928C338.952 115.517 339.368 113.448 340.2 111.72C341.032 109.992 342.195 108.669 343.688 107.752C345.181 106.835 346.92 106.376 348.904 106.376C349.971 106.376 351.08 106.504 352.232 106.76C353.384 107.016 354.579 107.421 355.816 107.976L355.592 113H354.024L353.448 109.032L353.928 109.544C353.075 109.181 352.211 108.915 351.336 108.744C350.483 108.552 349.683 108.456 348.936 108.456C347.464 108.456 346.195 108.829 345.128 109.576C344.061 110.301 343.229 111.347 342.632 112.712C342.056 114.077 341.768 115.709 341.768 117.608C341.768 119.656 342.077 121.384 342.696 122.792C343.315 124.2 344.157 125.277 345.224 126.024C346.312 126.749 347.528 127.112 348.872 127.112C349.853 127.112 350.877 126.899 351.944 126.472C353.032 126.045 354.077 125.395 355.08 124.52L356.136 126.088C354.877 127.176 353.565 127.987 352.2 128.52C350.835 129.032 349.501 129.288 348.2 129.288ZM366.189 111.816C368.536 111.816 370.371 112.552 371.693 114.024C373.037 115.496 373.709 117.576 373.709 120.264C373.709 122.077 373.379 123.667 372.717 125.032C372.077 126.376 371.16 127.421 369.965 128.168C368.771 128.915 367.331 129.288 365.645 129.288C363.341 129.288 361.539 128.573 360.237 127.144C358.936 125.693 358.285 123.613 358.285 120.904C358.285 119.027 358.595 117.416 359.213 116.072C359.853 114.707 360.76 113.661 361.933 112.936C363.128 112.189 364.547 111.816 366.189 111.816ZM366.061 113.704C364.419 113.704 363.16 114.323 362.285 115.56C361.411 116.797 360.973 118.536 360.973 120.776C360.973 122.973 361.389 124.627 362.221 125.736C363.053 126.845 364.248 127.4 365.805 127.4C366.936 127.4 367.885 127.123 368.653 126.568C369.443 125.992 370.029 125.181 370.413 124.136C370.819 123.091 371.021 121.843 371.021 120.392C371.021 118.216 370.584 116.563 369.709 115.432C368.856 114.28 367.64 113.704 366.061 113.704ZM391.796 115.016L391.444 115.08C392.489 113.992 393.598 113.181 394.772 112.648C395.945 112.093 397.044 111.816 398.068 111.816C399.369 111.816 400.457 112.253 401.332 113.128C402.228 113.981 402.676 115.304 402.676 117.096V127.464L402.356 127.016L405.172 127.624V129H397.748V127.624L400.468 127.016L400.116 127.496V117.672C400.116 116.349 399.828 115.379 399.252 114.76C398.697 114.141 397.972 113.832 397.076 113.832C396.308 113.832 395.454 114.056 394.516 114.504C393.598 114.952 392.692 115.635 391.796 116.552L392.02 115.944C392.041 116.136 392.052 116.317 392.052 116.488C392.073 116.659 392.083 116.829 392.083 117V127.464L391.764 127.016L394.42 127.624V129H387.188V127.624L389.908 127.016L389.524 127.496V117.672C389.524 116.349 389.236 115.379 388.66 114.76C388.105 114.141 387.38 113.832 386.484 113.832C385.716 113.832 384.873 114.045 383.956 114.472C383.038 114.899 382.132 115.56 381.236 116.456L381.46 115.976V127.496L381.14 127.048L383.796 127.624V129H376.404V127.624L379.284 126.984L378.9 127.464V113.704L379.284 114.184L376.404 113.576V112.2L380.884 111.976L381.236 115.112L380.884 114.984C381.929 113.896 383.028 113.096 384.18 112.584C385.353 112.072 386.462 111.816 387.508 111.816C388.489 111.816 389.364 112.083 390.132 112.616C390.9 113.128 391.454 113.928 391.796 115.016ZM422.327 115.016L421.975 115.08C423.02 113.992 424.129 113.181 425.303 112.648C426.476 112.093 427.575 111.816 428.599 111.816C429.9 111.816 430.988 112.253 431.863 113.128C432.759 113.981 433.207 115.304 433.207 117.096V127.464L432.887 127.016L435.703 127.624V129H428.279V127.624L430.999 127.016L430.647 127.496V117.672C430.647 116.349 430.359 115.379 429.783 114.76C429.228 114.141 428.503 113.832 427.607 113.832C426.839 113.832 425.985 114.056 425.047 114.504C424.129 114.952 423.223 115.635 422.327 116.552L422.551 115.944C422.572 116.136 422.583 116.317 422.583 116.488C422.604 116.659 422.615 116.829 422.615 117V127.464L422.295 127.016L424.951 127.624V129H417.719V127.624L420.439 127.016L420.055 127.496V117.672C420.055 116.349 419.767 115.379 419.191 114.76C418.636 114.141 417.911 113.832 417.015 113.832C416.247 113.832 415.404 114.045 414.487 114.472C413.569 114.899 412.663 115.56 411.767 116.456L411.991 115.976V127.496L411.671 127.048L414.327 127.624V129H406.935V127.624L409.815 126.984L409.431 127.464V113.704L409.815 114.184L406.935 113.576V112.2L411.415 111.976L411.767 115.112L411.415 114.984C412.46 113.896 413.559 113.096 414.711 112.584C415.884 112.072 416.993 111.816 418.039 111.816C419.02 111.816 419.895 112.083 420.663 112.616C421.431 113.128 421.985 113.928 422.327 115.016ZM445.658 111.816C448.005 111.816 449.839 112.552 451.162 114.024C452.506 115.496 453.178 117.576 453.178 120.264C453.178 122.077 452.847 123.667 452.186 125.032C451.546 126.376 450.629 127.421 449.434 128.168C448.239 128.915 446.799 129.288 445.114 129.288C442.81 129.288 441.007 128.573 439.706 127.144C438.405 125.693 437.754 123.613 437.754 120.904C437.754 119.027 438.063 117.416 438.682 116.072C439.322 114.707 440.229 113.661 441.402 112.936C442.597 112.189 444.015 111.816 445.658 111.816ZM445.53 113.704C443.887 113.704 442.629 114.323 441.754 115.56C440.879 116.797 440.442 118.536 440.442 120.776C440.442 122.973 440.858 124.627 441.69 125.736C442.522 126.845 443.717 127.4 445.274 127.4C446.405 127.4 447.354 127.123 448.122 126.568C448.911 125.992 449.498 125.181 449.882 124.136C450.287 123.091 450.49 121.843 450.49 120.392C450.49 118.216 450.053 116.563 449.178 115.432C448.325 114.28 447.109 113.704 445.53 113.704ZM455.872 129V127.624L458.752 126.984L458.368 127.464V113.704L458.752 114.184L455.872 113.576V112.2L460.352 111.976L460.704 115.112L460.352 114.984C461.419 113.896 462.528 113.096 463.68 112.584C464.854 112.072 465.963 111.816 467.008 111.816C468.416 111.816 469.579 112.253 470.496 113.128C471.435 113.981 471.894 115.315 471.872 117.128V127.464L471.552 127.016L474.368 127.624V129H466.912V127.624L469.696 127.016L469.312 127.496V117.672C469.312 116.349 469.014 115.379 468.416 114.76C467.819 114.141 467.019 113.832 466.016 113.832C465.227 113.832 464.363 114.045 463.424 114.472C462.507 114.899 461.6 115.56 460.704 116.456L460.928 115.944V127.496L460.608 127.048L463.328 127.624V129H455.872Z" fill="white"/>
<path d="M510.102 203.584L486.416 179.898C486.092 179.573 485.707 179.315 485.283 179.139C484.859 178.963 484.405 178.872 483.946 178.872C483.487 178.872 483.032 178.963 482.608 179.139C482.184 179.315 481.799 179.573 481.475 179.898L476.556 184.817L482.795 191.056C483.531 190.806 484.322 190.767 485.078 190.944C485.835 191.122 486.526 191.508 487.074 192.06C487.622 192.611 488.004 193.305 488.176 194.063C488.349 194.82 488.305 195.611 488.049 196.345L494.056 202.352C494.953 202.043 495.93 202.052 496.822 202.376C497.714 202.7 498.469 203.32 498.959 204.133C499.45 204.945 499.647 205.902 499.518 206.842C499.389 207.783 498.942 208.65 498.251 209.301C497.56 209.952 496.667 210.346 495.72 210.418C494.774 210.491 493.831 210.236 493.049 209.698C492.267 209.159 491.694 208.369 491.424 207.459C491.154 206.549 491.204 205.574 491.566 204.696L485.957 199.087V213.845C486.807 214.266 487.486 214.965 487.883 215.827C488.28 216.688 488.369 217.659 488.137 218.578C487.905 219.498 487.364 220.31 486.606 220.879C485.848 221.448 484.917 221.741 483.97 221.707C483.022 221.674 482.114 221.317 481.398 220.696C480.681 220.075 480.199 219.227 480.032 218.294C479.865 217.36 480.022 216.398 480.479 215.566C480.935 214.735 481.662 214.085 482.539 213.725V198.831C482.032 198.623 481.57 198.316 481.182 197.929C480.794 197.542 480.486 197.082 480.276 196.575C480.066 196.068 479.958 195.525 479.96 194.976C479.961 194.428 480.07 193.885 480.282 193.379L474.14 187.233L457.898 203.481C457.573 203.805 457.314 204.19 457.138 204.614C456.962 205.039 456.871 205.493 456.871 205.952C456.871 206.412 456.962 206.866 457.138 207.291C457.314 207.715 457.573 208.1 457.898 208.424L481.584 232.102C481.908 232.427 482.293 232.685 482.717 232.861C483.141 233.037 483.595 233.128 484.054 233.128C484.513 233.128 484.968 233.037 485.392 232.861C485.816 232.685 486.201 232.427 486.525 232.102L510.102 208.519C510.427 208.195 510.686 207.81 510.862 207.385C511.038 206.961 511.129 206.507 511.129 206.047C511.129 205.588 511.038 205.133 510.862 204.709C510.686 204.285 510.427 203.9 510.102 203.576" fill="#DD4C35"/>
<path d="M476.556 184.817L482.795 191.056C483.531 190.806 484.322 190.767 485.078 190.944C485.835 191.122 486.527 191.508 487.074 192.06C487.622 192.611 488.004 193.305 488.176 194.063C488.349 194.82 488.305 195.611 488.049 196.345L494.056 202.352C494.953 202.043 495.93 202.052 496.822 202.376C497.714 202.7 498.469 203.32 498.959 204.133C499.45 204.945 499.647 205.902 499.518 206.842C499.389 207.783 498.942 208.651 498.251 209.301C497.56 209.952 496.667 210.346 495.72 210.419C494.774 210.491 493.831 210.236 493.049 209.698C492.267 209.159 491.694 208.369 491.424 207.459C491.154 206.549 491.204 205.574 491.566 204.696L485.957 199.087V213.845C486.807 214.266 487.486 214.965 487.883 215.827C488.28 216.688 488.369 217.659 488.137 218.578C487.905 219.498 487.364 220.31 486.606 220.879C485.848 221.448 484.917 221.741 483.97 221.707C483.022 221.674 482.114 221.317 481.398 220.696C480.681 220.075 480.199 219.227 480.032 218.294C479.865 217.36 480.022 216.398 480.479 215.566C480.935 214.735 481.662 214.085 482.539 213.725V198.831C482.032 198.623 481.57 198.316 481.182 197.929C480.794 197.542 480.486 197.082 480.276 196.575C480.066 196.068 479.958 195.525 479.96 194.976C479.961 194.428 480.07 193.885 480.282 193.379L474.14 187.233" fill="white"/>
</svg>
