<svg width="509" height="246" viewBox="0 0 509 246" fill="none" xmlns="http://www.w3.org/2000/svg">
<rect width="509" height="246" fill="#2E2C2C"/>
<path d="M122.64 111.984L119.504 112.624L119.856 112.272V133.072L119.504 132.688L122.64 133.296V134.64H114.864V133.296L117.968 132.72L117.648 133.072V112.272L118.032 112.624L114.864 112.144V110.8L122.64 110.64V111.984ZM118.32 130.64C116.101 130.64 114.181 130.384 112.56 129.872C110.96 129.339 109.723 128.496 108.848 127.344C107.995 126.192 107.568 124.688 107.568 122.832C107.568 120.891 108.037 119.323 108.976 118.128C109.915 116.912 111.227 116.037 112.912 115.504C114.619 114.949 116.635 114.672 118.96 114.672C120.645 114.672 122.16 114.821 123.504 115.12C124.869 115.397 126.021 115.845 126.96 116.464C127.92 117.061 128.656 117.851 129.168 118.832C129.68 119.813 129.936 120.997 129.936 122.384C129.936 124.261 129.467 125.819 128.528 127.056C127.611 128.272 126.277 129.179 124.528 129.776C122.8 130.352 120.731 130.64 118.32 130.64ZM118.512 129.04C120.283 129.061 121.808 128.869 123.088 128.464C124.389 128.059 125.403 127.376 126.128 126.416C126.853 125.435 127.216 124.123 127.216 122.48C127.216 120.923 126.875 119.696 126.192 118.8C125.531 117.883 124.571 117.232 123.312 116.848C122.075 116.464 120.571 116.272 118.8 116.272C117.093 116.272 115.6 116.464 114.32 116.848C113.04 117.232 112.048 117.893 111.344 118.832C110.64 119.771 110.288 121.072 110.288 122.736C110.288 124.293 110.608 125.531 111.248 126.448C111.909 127.365 112.859 128.027 114.096 128.432C115.333 128.837 116.805 129.04 118.512 129.04ZM145.149 132.56L144.733 131.984L147.677 132.56V133.968L143.197 134.16L142.813 131.088L143.037 131.184C142.099 132.208 141.085 132.987 139.997 133.52C138.909 134.032 137.853 134.288 136.829 134.288C135.592 134.288 134.547 133.893 133.693 133.104C132.84 132.315 132.413 131.12 132.413 129.52C132.413 128.261 132.68 127.301 133.213 126.64C133.747 125.957 134.483 125.477 135.421 125.2C136.36 124.923 137.448 124.784 138.685 124.784H142.877L142.589 125.104V122.032C142.589 120.859 142.28 120.027 141.661 119.536C141.043 119.024 140.189 118.768 139.101 118.768C138.525 118.768 137.907 118.832 137.245 118.96C136.605 119.067 135.923 119.248 135.197 119.504L135.581 119.088L135.261 122H133.565L133.309 118.032C134.525 117.627 135.667 117.328 136.733 117.136C137.8 116.923 138.781 116.816 139.677 116.816C141.384 116.816 142.717 117.2 143.677 117.968C144.659 118.715 145.149 119.92 145.149 121.584V132.56ZM135.005 129.296C135.005 130.341 135.251 131.109 135.741 131.6C136.253 132.091 136.893 132.336 137.661 132.336C138.408 132.336 139.229 132.112 140.125 131.664C141.043 131.195 141.928 130.565 142.781 129.776L142.589 130.448V126.16L142.877 126.448H139.069C137.555 126.448 136.499 126.683 135.901 127.152C135.304 127.6 135.005 128.315 135.005 129.296ZM149.497 134V132.624L152.536 131.92L151.993 132.496V118.64L152.665 119.248L149.497 118.544V117.2L156.889 117.008V118.352L153.849 119.152L154.457 118.576V129.488L154.009 129.456L163.641 119.376L163.353 119.984L163.321 118.64L163.769 119.12L160.889 118.544V117.2L168.281 117.008V118.352L165.208 119.152L165.785 118.576V132.496L165.241 131.92L168.281 132.624V134H160.889V132.624L163.801 131.984L163.321 132.496V121.232L163.737 121.456L154.137 131.664L154.457 131.088V132.496L154.201 132.08L156.889 132.624V134H149.497ZM158.905 113.488C158.073 113.488 157.294 113.349 156.569 113.072C155.865 112.795 155.289 112.368 154.841 111.792C154.393 111.216 154.137 110.469 154.073 109.552L156.536 109.392C156.601 110.309 156.889 110.981 157.401 111.408C157.934 111.813 158.563 112.016 159.289 112.016C159.993 112.016 160.579 111.813 161.049 111.408C161.518 111.003 161.742 110.363 161.721 109.488L163.673 109.392C163.673 110.331 163.449 111.109 163.001 111.728C162.574 112.325 161.998 112.773 161.273 113.072C160.569 113.349 159.779 113.488 158.905 113.488ZM171.613 134.256C171.314 134.256 171.005 134.224 170.685 134.16C170.365 134.117 170.013 134.043 169.629 133.936L170.013 131.856C170.183 131.877 170.343 131.899 170.493 131.92C170.663 131.941 170.823 131.952 170.973 131.952C172.189 131.952 173.085 131.419 173.661 130.352C174.258 129.264 174.653 127.707 174.845 125.68C175.058 123.653 175.175 121.221 175.197 118.384L175.869 119.152L172.413 118.48V117.104H187.325V118.48L184.253 119.184L184.829 118.384V132.368L184.541 132.016L187.325 132.624V134H179.741V132.624L182.525 132.016L182.269 132.368V118.32L182.717 119.056H176.413L177.213 118.32C177.191 120.816 177.095 123.045 176.925 125.008C176.775 126.971 176.498 128.645 176.093 130.032C175.687 131.397 175.122 132.443 174.397 133.168C173.671 133.893 172.743 134.256 171.613 134.256ZM210.292 118.576V132.368L210.004 132.016L212.788 132.624V134H205.204V132.624L207.988 132.016L207.732 132.368V118.576L208.052 119.12L205.204 118.544V117.2L212.788 117.008V118.352L209.78 119.056L210.292 118.576ZM189.716 134V132.624L192.5 132.016L192.212 132.368V118.576L192.564 119.12L189.716 118.544V117.2L197.652 117.008V118.352L194.292 119.056L194.772 118.576V123.728L194.324 123.344H198.26C200.18 123.344 201.652 123.781 202.676 124.656C203.7 125.531 204.212 126.821 204.212 128.528C204.212 130.256 203.636 131.6 202.484 132.56C201.332 133.52 199.465 134 196.884 134H189.716ZM194.772 132.624L194.324 132.208H196.884C198.505 132.208 199.689 131.909 200.436 131.312C201.183 130.693 201.556 129.787 201.556 128.592C201.556 127.461 201.225 126.608 200.564 126.032C199.924 125.435 198.953 125.136 197.652 125.136H194.324L194.772 124.72V132.624ZM229.015 121.872L228.503 122.384V115.184H230.519V122.384L230.007 121.872H236.983V123.76H230.007L230.519 123.248V130.448H228.503V123.248L229.015 123.76H222.039V121.872H229.015ZM254.407 125.456H251.431L252.007 124.976V132.528L251.559 131.984L255.527 132.624V134H246.631V132.624L249.863 131.952L249.383 132.528V113.168L249.927 113.776L246.631 113.2V111.824L252.071 111.664H255.687C257.329 111.664 258.684 111.941 259.751 112.496C260.817 113.051 261.617 113.819 262.151 114.8C262.684 115.781 262.951 116.923 262.951 118.224C262.951 119.653 262.631 120.912 261.991 122C261.351 123.088 260.391 123.941 259.111 124.56C257.852 125.157 256.284 125.456 254.407 125.456ZM255.303 113.616H251.527L252.007 113.136V123.984L251.431 123.504H254.407C256.284 123.504 257.724 123.035 258.727 122.096C259.751 121.157 260.263 119.888 260.263 118.288C260.263 116.837 259.836 115.696 258.983 114.864C258.151 114.032 256.924 113.616 255.303 113.616ZM272.426 134.288C270.996 134.288 269.727 133.968 268.618 133.328C267.53 132.667 266.676 131.707 266.058 130.448C265.439 129.189 265.13 127.653 265.13 125.84C265.13 123.984 265.45 122.384 266.09 121.04C266.73 119.696 267.636 118.661 268.81 117.936C269.983 117.189 271.359 116.816 272.938 116.816C274.431 116.816 275.658 117.136 276.618 117.776C277.599 118.395 278.324 119.259 278.794 120.368C279.284 121.477 279.53 122.747 279.53 124.176C279.53 124.411 279.519 124.645 279.498 124.88C279.476 125.115 279.444 125.403 279.402 125.744H267.082V123.92H277.162L276.874 124.112C276.895 123.152 276.778 122.267 276.522 121.456C276.266 120.645 275.828 119.995 275.21 119.504C274.591 119.013 273.77 118.768 272.746 118.768C271.658 118.768 270.74 119.056 269.994 119.632C269.247 120.208 268.692 120.997 268.33 122C267.967 123.003 267.786 124.165 267.786 125.488C267.786 126.896 267.988 128.112 268.394 129.136C268.799 130.139 269.386 130.917 270.154 131.472C270.943 132.027 271.903 132.304 273.034 132.304C273.823 132.304 274.687 132.155 275.626 131.856C276.564 131.536 277.535 131.056 278.538 130.416L279.466 131.856C278.271 132.667 277.076 133.275 275.882 133.68C274.687 134.085 273.535 134.288 272.426 134.288ZM280.821 139.056L280.725 132.464L283.349 132.048L281.845 132.656C282.591 132.123 283.231 131.515 283.765 130.832C284.319 130.149 284.778 129.296 285.141 128.272C285.503 127.227 285.77 125.925 285.941 124.368C286.133 122.789 286.239 120.859 286.261 118.576L286.933 119.152L283.477 118.48V117.104H298.229V118.48L295.157 119.184L295.701 118.608V132.56L295.157 132.08L299.061 132.528L299.029 139.056H297.397L296.661 133.552L297.269 134H282.453L283.125 133.552L282.421 139.056H280.821ZM284.245 132.528L284.309 132.048H293.653L293.141 132.496V118.448L293.589 119.056H287.605L288.149 118.416C288.149 121.168 288.01 123.472 287.733 125.328C287.477 127.184 287.061 128.688 286.485 129.84C285.93 130.971 285.183 131.867 284.245 132.528ZM314.149 132.56L313.733 131.984L316.677 132.56V133.968L312.197 134.16L311.813 131.088L312.037 131.184C311.099 132.208 310.085 132.987 308.997 133.52C307.909 134.032 306.853 134.288 305.829 134.288C304.592 134.288 303.547 133.893 302.693 133.104C301.84 132.315 301.413 131.12 301.413 129.52C301.413 128.261 301.68 127.301 302.213 126.64C302.747 125.957 303.483 125.477 304.421 125.2C305.36 124.923 306.448 124.784 307.685 124.784H311.877L311.589 125.104V122.032C311.589 120.859 311.28 120.027 310.661 119.536C310.043 119.024 309.189 118.768 308.101 118.768C307.525 118.768 306.907 118.832 306.245 118.96C305.605 119.067 304.923 119.248 304.197 119.504L304.581 119.088L304.261 122H302.565L302.309 118.032C303.525 117.627 304.667 117.328 305.733 117.136C306.8 116.923 307.781 116.816 308.677 116.816C310.384 116.816 311.717 117.2 312.677 117.968C313.659 118.715 314.149 119.92 314.149 121.584V132.56ZM304.005 129.296C304.005 130.341 304.251 131.109 304.741 131.6C305.253 132.091 305.893 132.336 306.661 132.336C307.408 132.336 308.229 132.112 309.125 131.664C310.043 131.195 310.928 130.565 311.781 129.776L311.589 130.448V126.16L311.877 126.448H308.069C306.555 126.448 305.499 126.683 304.901 127.152C304.304 127.6 304.005 128.315 304.005 129.296ZM318.497 134V132.624L321.377 131.984L320.993 132.528V118.544L321.409 119.12L318.497 118.544V117.2L325.921 117.008V118.352L323.233 119.024L323.553 118.544V124.816L323.073 124.24H327.617L326.753 124.72L330.401 118.608L330.625 118.96L327.969 118.576V117.2L335.009 116.976V118.352L332.161 118.928L332.897 118.448L328.737 125.36L328.897 124.592L333.665 132.432L333.249 132.08L335.905 132.624V134H331.841L327.041 125.872L327.553 126.032H323.073L323.553 125.84V132.528L323.233 131.984L326.305 132.624V134H318.497ZM339.656 134V132.624L343.208 132.048L342.632 132.72V118.608L343.24 119.056H337.799L338.376 118.512L337.799 122.032H336.2V117.104H351.624V122.032H350.024L349.448 118.608L349.992 119.056H344.648L345.192 118.608V132.72L344.712 132.048L348.232 132.624V134H339.656ZM360.814 116.816C363.161 116.816 364.996 117.552 366.318 119.024C367.662 120.496 368.334 122.576 368.334 125.264C368.334 127.077 368.004 128.667 367.342 130.032C366.702 131.376 365.785 132.421 364.59 133.168C363.396 133.915 361.956 134.288 360.27 134.288C357.966 134.288 356.164 133.573 354.862 132.144C353.561 130.693 352.91 128.613 352.91 125.904C352.91 124.027 353.22 122.416 353.838 121.072C354.478 119.707 355.385 118.661 356.558 117.936C357.753 117.189 359.172 116.816 360.814 116.816ZM360.686 118.704C359.044 118.704 357.785 119.323 356.91 120.56C356.036 121.797 355.598 123.536 355.598 125.776C355.598 127.973 356.014 129.627 356.846 130.736C357.678 131.845 358.873 132.4 360.43 132.4C361.561 132.4 362.51 132.123 363.278 131.568C364.068 130.992 364.654 130.181 365.038 129.136C365.444 128.091 365.646 126.843 365.646 125.392C365.646 123.216 365.209 121.563 364.334 120.432C363.481 119.28 362.265 118.704 360.686 118.704ZM370.677 141.36V139.984L373.589 139.312L373.173 139.792V118.768L373.557 119.184L370.677 118.576V117.2L375.157 116.976L375.477 119.76L375.189 119.568C376.17 118.651 377.151 117.968 378.133 117.52C379.114 117.051 380.085 116.816 381.045 116.816C382.239 116.816 383.306 117.147 384.245 117.808C385.205 118.469 385.962 119.429 386.517 120.688C387.071 121.925 387.349 123.451 387.349 125.264C387.349 127.227 387.007 128.88 386.325 130.224C385.663 131.568 384.725 132.592 383.509 133.296C382.293 133.979 380.863 134.32 379.22 134.32C378.623 134.32 378.005 134.267 377.365 134.16C376.725 134.053 376.053 133.915 375.349 133.744L375.733 133.392V139.792L375.381 139.344L378.677 139.984V141.36H370.677ZM378.933 132.4C380.81 132.4 382.239 131.792 383.221 130.576C384.202 129.36 384.693 127.675 384.693 125.52C384.693 124.112 384.49 122.907 384.085 121.904C383.701 120.901 383.167 120.133 382.485 119.6C381.802 119.045 381.023 118.768 380.149 118.768C379.402 118.768 378.623 118.971 377.812 119.376C377.023 119.76 376.223 120.357 375.413 121.168L375.733 120.368V132.368L375.381 131.792C376.682 132.197 377.866 132.4 378.933 132.4ZM410.667 118.576V132.368L410.379 132.016L413.163 132.624V134H405.579V132.624L408.363 132.016L408.107 132.368V118.576L408.427 119.12L405.579 118.544V117.2L413.163 117.008V118.352L410.155 119.056L410.667 118.576ZM390.091 134V132.624L392.875 132.016L392.587 132.368V118.576L392.939 119.12L390.091 118.544V117.2L398.027 117.008V118.352L394.667 119.056L395.147 118.576V123.728L394.699 123.344H398.635C400.555 123.344 402.027 123.781 403.051 124.656C404.075 125.531 404.587 126.821 404.587 128.528C404.587 130.256 404.011 131.6 402.859 132.56C401.707 133.52 399.84 134 397.259 134H390.091ZM395.147 132.624L394.699 132.208H397.259C398.88 132.208 400.064 131.909 400.811 131.312C401.558 130.693 401.931 129.787 401.931 128.592C401.931 127.461 401.6 126.608 400.939 126.032C400.299 125.435 399.328 125.136 398.027 125.136H394.699L395.147 124.72V132.624Z" fill="white"/>
<path d="M480.364 175.727L448.273 143.636C447.834 143.196 447.313 142.846 446.738 142.608C446.164 142.369 445.548 142.246 444.927 142.246C444.305 142.246 443.689 142.369 443.115 142.608C442.54 142.846 442.019 143.196 441.58 143.636L434.915 150.301L443.367 158.753C444.364 158.414 445.436 158.362 446.461 158.602C447.486 158.843 448.423 159.366 449.165 160.113C449.907 160.86 450.424 161.8 450.658 162.827C450.892 163.854 450.832 164.925 450.486 165.92L458.624 174.057C459.84 173.639 461.163 173.651 462.372 174.09C463.581 174.529 464.603 175.369 465.267 176.47C465.932 177.571 466.199 178.867 466.025 180.141C465.85 181.415 465.244 182.591 464.308 183.473C463.372 184.354 462.161 184.889 460.879 184.986C459.596 185.084 458.319 184.739 457.26 184.01C456.201 183.28 455.424 182.21 455.058 180.977C454.693 179.744 454.76 178.422 455.251 177.233L447.651 169.634V189.629C448.802 190.199 449.723 191.147 450.261 192.313C450.798 193.48 450.92 194.796 450.605 196.042C450.29 197.287 449.558 198.387 448.531 199.159C447.503 199.93 446.243 200.326 444.959 200.281C443.675 200.236 442.445 199.752 441.474 198.911C440.504 198.069 439.851 196.92 439.624 195.656C439.398 194.391 439.611 193.087 440.229 191.961C440.847 190.835 441.832 189.954 443.021 189.466V169.287C442.333 169.005 441.708 168.59 441.182 168.065C440.656 167.541 440.238 166.917 439.954 166.231C439.67 165.544 439.524 164.808 439.526 164.065C439.527 163.322 439.676 162.586 439.963 161.901L431.641 153.574L409.636 175.587C409.195 176.027 408.845 176.548 408.607 177.123C408.368 177.697 408.245 178.313 408.245 178.936C408.245 179.558 408.368 180.174 408.607 180.749C408.845 181.323 409.195 181.845 409.636 182.284L441.727 214.364C442.166 214.804 442.687 215.154 443.262 215.392C443.836 215.631 444.452 215.754 445.074 215.754C445.695 215.754 446.311 215.631 446.885 215.392C447.46 215.154 447.981 214.804 448.42 214.364L480.364 182.412C480.805 181.973 481.155 181.452 481.393 180.877C481.632 180.303 481.755 179.687 481.755 179.064C481.755 178.442 481.632 177.826 481.393 177.251C481.155 176.677 480.805 176.155 480.364 175.716" fill="#DD4C35"/>
<path d="M434.915 150.301L443.367 158.753C444.364 158.414 445.436 158.362 446.461 158.602C447.486 158.843 448.423 159.366 449.165 160.113C449.907 160.86 450.424 161.8 450.658 162.827C450.892 163.854 450.832 164.925 450.486 165.92L458.624 174.057C459.84 173.639 461.163 173.651 462.372 174.09C463.581 174.529 464.603 175.369 465.267 176.47C465.932 177.571 466.199 178.867 466.025 180.141C465.85 181.415 465.244 182.591 464.308 183.473C463.372 184.355 462.161 184.889 460.879 184.986C459.596 185.084 458.319 184.74 457.26 184.01C456.201 183.28 455.424 182.21 455.058 180.977C454.693 179.744 454.76 178.422 455.251 177.233L447.651 169.634V189.629C448.802 190.199 449.723 191.147 450.261 192.313C450.798 193.48 450.92 194.796 450.605 196.042C450.29 197.287 449.558 198.387 448.531 199.159C447.503 199.93 446.243 200.326 444.959 200.281C443.675 200.236 442.445 199.752 441.474 198.911C440.504 198.069 439.851 196.92 439.624 195.656C439.398 194.391 439.611 193.087 440.229 191.961C440.847 190.835 441.832 189.954 443.021 189.466V169.288C442.333 169.005 441.708 168.59 441.182 168.066C440.656 167.541 440.238 166.917 439.954 166.231C439.67 165.544 439.524 164.808 439.526 164.065C439.527 163.322 439.676 162.586 439.963 161.901L431.641 153.574" fill="white"/>
</svg>
