<svg width="532" height="246" viewBox="0 0 532 246" fill="none" xmlns="http://www.w3.org/2000/svg">
<rect width="246" height="246" fill="#2E2C2C"/>
<rect x="282" width="250" height="246" fill="#2E2C2C"/>
<path d="M83.64 106.984L80.504 107.624L80.856 107.272V128.072L80.504 127.688L83.64 128.296V129.64H75.864V128.296L78.968 127.72L78.648 128.072V107.272L79.032 107.624L75.864 107.144V105.8L83.64 105.64V106.984ZM79.32 125.64C77.1013 125.64 75.1813 125.384 73.56 124.872C71.96 124.339 70.7227 123.496 69.848 122.344C68.9947 121.192 68.568 119.688 68.568 117.832C68.568 115.891 69.0373 114.323 69.976 113.128C70.9147 111.912 72.2267 111.037 73.912 110.504C75.6187 109.949 77.6347 109.672 79.96 109.672C81.6453 109.672 83.16 109.821 84.504 110.12C85.8693 110.397 87.0213 110.845 87.96 111.464C88.92 112.061 89.656 112.851 90.168 113.832C90.68 114.813 90.936 115.997 90.936 117.384C90.936 119.261 90.4667 120.819 89.528 122.056C88.6107 123.272 87.2773 124.179 85.528 124.776C83.8 125.352 81.7307 125.64 79.32 125.64ZM79.512 124.04C81.2827 124.061 82.808 123.869 84.088 123.464C85.3893 123.059 86.4027 122.376 87.128 121.416C87.8533 120.435 88.216 119.123 88.216 117.48C88.216 115.923 87.8747 114.696 87.192 113.8C86.5307 112.883 85.5707 112.232 84.312 111.848C83.0747 111.464 81.5707 111.272 79.8 111.272C78.0933 111.272 76.6 111.464 75.32 111.848C74.04 112.232 73.048 112.893 72.344 113.832C71.64 114.771 71.288 116.072 71.288 117.736C71.288 119.293 71.608 120.531 72.248 121.448C72.9093 122.365 73.8587 123.027 75.096 123.432C76.3333 123.837 77.8053 124.04 79.512 124.04ZM106.149 127.56L105.733 126.984L108.677 127.56V128.968L104.197 129.16L103.813 126.088L104.037 126.184C103.099 127.208 102.085 127.987 100.997 128.52C99.9093 129.032 98.8533 129.288 97.8293 129.288C96.5919 129.288 95.5466 128.893 94.6933 128.104C93.8399 127.315 93.4133 126.12 93.4133 124.52C93.4133 123.261 93.6799 122.301 94.2133 121.64C94.7466 120.957 95.4826 120.477 96.4213 120.2C97.3599 119.923 98.4479 119.784 99.6853 119.784H103.877L103.589 120.104V117.032C103.589 115.859 103.28 115.027 102.661 114.536C102.043 114.024 101.189 113.768 100.101 113.768C99.5253 113.768 98.9066 113.832 98.2453 113.96C97.6053 114.067 96.9226 114.248 96.1973 114.504L96.5813 114.088L96.2613 117H94.5653L94.3093 113.032C95.5253 112.627 96.6666 112.328 97.7333 112.136C98.7999 111.923 99.7813 111.816 100.677 111.816C102.384 111.816 103.717 112.2 104.677 112.968C105.659 113.715 106.149 114.92 106.149 116.584V127.56ZM96.0052 124.296C96.0052 125.341 96.2506 126.109 96.7413 126.6C97.2533 127.091 97.8933 127.336 98.6613 127.336C99.4079 127.336 100.229 127.112 101.125 126.664C102.043 126.195 102.928 125.565 103.781 124.776L103.589 125.448V121.16L103.877 121.448H100.069C98.5546 121.448 97.4986 121.683 96.9013 122.152C96.3039 122.6 96.0052 123.315 96.0052 124.296ZM110.497 129V127.624L113.536 126.92L112.993 127.496V113.64L113.665 114.248L110.497 113.544V112.2L117.889 112.008V113.352L114.849 114.152L115.457 113.576V124.488L115.009 124.456L124.641 114.376L124.353 114.984L124.321 113.64L124.769 114.12L121.889 113.544V112.2L129.281 112.008V113.352L126.208 114.152L126.785 113.576V127.496L126.241 126.92L129.281 127.624V129H121.889V127.624L124.801 126.984L124.321 127.496V116.232L124.737 116.456L115.137 126.664L115.457 126.088V127.496L115.201 127.08L117.889 127.624V129H110.497ZM119.905 108.488C119.073 108.488 118.294 108.349 117.569 108.072C116.865 107.795 116.289 107.368 115.841 106.792C115.393 106.216 115.137 105.469 115.073 104.552L117.536 104.392C117.601 105.309 117.889 105.981 118.401 106.408C118.934 106.813 119.563 107.016 120.289 107.016C120.993 107.016 121.579 106.813 122.049 106.408C122.518 106.003 122.742 105.363 122.721 104.488L124.673 104.392C124.673 105.331 124.449 106.109 124.001 106.728C123.574 107.325 122.998 107.773 122.273 108.072C121.569 108.349 120.779 108.488 119.905 108.488ZM132.613 129.256C132.314 129.256 132.005 129.224 131.685 129.16C131.365 129.117 131.013 129.043 130.629 128.936L131.013 126.856C131.183 126.877 131.343 126.899 131.493 126.92C131.663 126.941 131.823 126.952 131.973 126.952C133.189 126.952 134.085 126.419 134.661 125.352C135.258 124.264 135.653 122.707 135.845 120.68C136.058 118.653 136.175 116.221 136.197 113.384L136.869 114.152L133.413 113.48V112.104H148.325V113.48L145.253 114.184L145.829 113.384V127.368L145.541 127.016L148.325 127.624V129H140.741V127.624L143.525 127.016L143.269 127.368V113.32L143.717 114.056H137.413L138.213 113.32C138.191 115.816 138.095 118.045 137.925 120.008C137.775 121.971 137.498 123.645 137.093 125.032C136.687 126.397 136.122 127.443 135.397 128.168C134.671 128.893 133.743 129.256 132.613 129.256ZM171.292 113.576V127.368L171.004 127.016L173.788 127.624V129H166.204V127.624L168.988 127.016L168.732 127.368V113.576L169.052 114.12L166.204 113.544V112.2L173.788 112.008V113.352L170.78 114.056L171.292 113.576ZM150.716 129V127.624L153.5 127.016L153.212 127.368V113.576L153.564 114.12L150.716 113.544V112.2L158.652 112.008V113.352L155.292 114.056L155.772 113.576V118.728L155.324 118.344H159.26C161.18 118.344 162.652 118.781 163.676 119.656C164.7 120.531 165.212 121.821 165.212 123.528C165.212 125.256 164.636 126.6 163.484 127.56C162.332 128.52 160.465 129 157.884 129H150.716ZM155.772 127.624L155.324 127.208H157.884C159.505 127.208 160.689 126.909 161.436 126.312C162.183 125.693 162.556 124.787 162.556 123.592C162.556 122.461 162.225 121.608 161.564 121.032C160.924 120.435 159.953 120.136 158.652 120.136H155.324L155.772 119.72V127.624Z" fill="white"/>
<path d="M331.344 120.456H328.368L328.944 119.976V127.528L328.496 126.984L332.464 127.624V129H323.568V127.624L326.8 126.952L326.32 127.528V108.168L326.864 108.776L323.568 108.2V106.824L329.008 106.664H332.624C334.267 106.664 335.621 106.941 336.688 107.496C337.755 108.051 338.555 108.819 339.088 109.8C339.621 110.781 339.888 111.923 339.888 113.224C339.888 114.653 339.568 115.912 338.928 117C338.288 118.088 337.328 118.941 336.048 119.56C334.789 120.157 333.221 120.456 331.344 120.456ZM332.24 108.616H328.464L328.944 108.136V118.984L328.368 118.504H331.344C333.221 118.504 334.661 118.035 335.664 117.096C336.688 116.157 337.2 114.888 337.2 113.288C337.2 111.837 336.773 110.696 335.92 109.864C335.088 109.032 333.861 108.616 332.24 108.616ZM349.363 129.288C347.934 129.288 346.665 128.968 345.555 128.328C344.467 127.667 343.614 126.707 342.995 125.448C342.377 124.189 342.067 122.653 342.067 120.84C342.067 118.984 342.387 117.384 343.027 116.04C343.667 114.696 344.574 113.661 345.747 112.936C346.921 112.189 348.297 111.816 349.875 111.816C351.369 111.816 352.595 112.136 353.555 112.776C354.537 113.395 355.262 114.259 355.731 115.368C356.222 116.477 356.467 117.747 356.467 119.176C356.467 119.411 356.457 119.645 356.435 119.88C356.414 120.115 356.382 120.403 356.339 120.744H344.019V118.92H354.099L353.811 119.112C353.833 118.152 353.715 117.267 353.459 116.456C353.203 115.645 352.766 114.995 352.147 114.504C351.529 114.013 350.707 113.768 349.683 113.768C348.595 113.768 347.678 114.056 346.931 114.632C346.185 115.208 345.63 115.997 345.267 117C344.905 118.003 344.723 119.165 344.723 120.488C344.723 121.896 344.926 123.112 345.331 124.136C345.737 125.139 346.323 125.917 347.091 126.472C347.881 127.027 348.841 127.304 349.971 127.304C350.761 127.304 351.625 127.155 352.563 126.856C353.502 126.536 354.473 126.056 355.475 125.416L356.403 126.856C355.209 127.667 354.014 128.275 352.819 128.68C351.625 129.085 350.473 129.288 349.363 129.288ZM357.758 134.056L357.662 127.464L360.286 127.048L358.782 127.656C359.529 127.123 360.169 126.515 360.702 125.832C361.257 125.149 361.716 124.296 362.078 123.272C362.441 122.227 362.708 120.925 362.878 119.368C363.07 117.789 363.177 115.859 363.198 113.576L363.87 114.152L360.414 113.48V112.104H375.166V113.48L372.094 114.184L372.638 113.608V127.56L372.094 127.08L375.998 127.528L375.966 134.056H374.334L373.598 128.552L374.206 129H359.39L360.062 128.552L359.358 134.056H357.758ZM361.182 127.528L361.246 127.048H370.59L370.078 127.496V113.448L370.526 114.056H364.542L365.086 113.416C365.086 116.168 364.948 118.472 364.67 120.328C364.414 122.184 363.998 123.688 363.422 124.84C362.868 125.971 362.121 126.867 361.182 127.528ZM391.087 127.56L390.671 126.984L393.615 127.56V128.968L389.135 129.16L388.751 126.088L388.975 126.184C388.036 127.208 387.023 127.987 385.935 128.52C384.847 129.032 383.791 129.288 382.767 129.288C381.529 129.288 380.484 128.893 379.631 128.104C378.777 127.315 378.351 126.12 378.351 124.52C378.351 123.261 378.617 122.301 379.151 121.64C379.684 120.957 380.42 120.477 381.359 120.2C382.297 119.923 383.385 119.784 384.623 119.784H388.815L388.527 120.104V117.032C388.527 115.859 388.217 115.027 387.599 114.536C386.98 114.024 386.127 113.768 385.039 113.768C384.463 113.768 383.844 113.832 383.183 113.96C382.543 114.067 381.86 114.248 381.135 114.504L381.519 114.088L381.199 117H379.503L379.247 113.032C380.463 112.627 381.604 112.328 382.671 112.136C383.737 111.923 384.719 111.816 385.615 111.816C387.321 111.816 388.655 112.2 389.615 112.968C390.596 113.715 391.087 114.92 391.087 116.584V127.56ZM380.943 124.296C380.943 125.341 381.188 126.109 381.679 126.6C382.191 127.091 382.831 127.336 383.599 127.336C384.345 127.336 385.167 127.112 386.063 126.664C386.98 126.195 387.865 125.565 388.719 124.776L388.527 125.448V121.16L388.815 121.448H385.007C383.492 121.448 382.436 121.683 381.839 122.152C381.241 122.6 380.943 123.315 380.943 124.296ZM395.434 129V127.624L398.314 126.984L397.93 127.528V113.544L398.346 114.12L395.434 113.544V112.2L402.858 112.008V113.352L400.17 114.024L400.49 113.544V119.816L400.01 119.24H404.554L403.69 119.72L407.338 113.608L407.562 113.96L404.906 113.576V112.2L411.946 111.976V113.352L409.098 113.928L409.834 113.448L405.674 120.36L405.834 119.592L410.602 127.432L410.186 127.08L412.842 127.624V129H408.778L403.978 120.872L404.49 121.032H400.01L400.49 120.84V127.528L400.17 126.984L403.242 127.624V129H395.434ZM416.593 129V127.624L420.145 127.048L419.569 127.72V113.608L420.177 114.056H414.737L415.313 113.512L414.737 117.032H413.137V112.104H428.561V117.032H426.961L426.385 113.608L426.929 114.056H421.585L422.129 113.608V127.72L421.649 127.048L425.169 127.624V129H416.593ZM437.752 111.816C440.098 111.816 441.933 112.552 443.256 114.024C444.6 115.496 445.272 117.576 445.272 120.264C445.272 122.077 444.941 123.667 444.28 125.032C443.64 126.376 442.722 127.421 441.528 128.168C440.333 128.915 438.893 129.288 437.208 129.288C434.904 129.288 433.101 128.573 431.8 127.144C430.498 125.693 429.848 123.613 429.848 120.904C429.848 119.027 430.157 117.416 430.776 116.072C431.416 114.707 432.322 113.661 433.496 112.936C434.69 112.189 436.109 111.816 437.752 111.816ZM437.624 113.704C435.981 113.704 434.722 114.323 433.848 115.56C432.973 116.797 432.536 118.536 432.536 120.776C432.536 122.973 432.952 124.627 433.784 125.736C434.616 126.845 435.81 127.4 437.368 127.4C438.498 127.4 439.448 127.123 440.216 126.568C441.005 125.992 441.592 125.181 441.976 124.136C442.381 123.091 442.584 121.843 442.584 120.392C442.584 118.216 442.146 116.563 441.272 115.432C440.418 114.28 439.202 113.704 437.624 113.704ZM447.614 136.36V134.984L450.526 134.312L450.11 134.792V113.768L450.494 114.184L447.614 113.576V112.2L452.094 111.976L452.414 114.76L452.126 114.568C453.107 113.651 454.089 112.968 455.07 112.52C456.051 112.051 457.022 111.816 457.982 111.816C459.177 111.816 460.243 112.147 461.182 112.808C462.142 113.469 462.899 114.429 463.454 115.688C464.009 116.925 464.286 118.451 464.286 120.264C464.286 122.227 463.945 123.88 463.262 125.224C462.601 126.568 461.662 127.592 460.446 128.296C459.23 128.979 457.801 129.32 456.158 129.32C455.561 129.32 454.942 129.267 454.302 129.16C453.662 129.053 452.99 128.915 452.286 128.744L452.67 128.392V134.792L452.318 134.344L455.614 134.984V136.36H447.614ZM455.87 127.4C457.747 127.4 459.177 126.792 460.158 125.576C461.139 124.36 461.63 122.675 461.63 120.52C461.63 119.112 461.427 117.907 461.022 116.904C460.638 115.901 460.105 115.133 459.422 114.6C458.739 114.045 457.961 113.768 457.086 113.768C456.339 113.768 455.561 113.971 454.75 114.376C453.961 114.76 453.161 115.357 452.35 116.168L452.67 115.368V127.368L452.318 126.792C453.619 127.197 454.803 127.4 455.87 127.4ZM487.605 113.576V127.368L487.317 127.016L490.101 127.624V129H482.517V127.624L485.301 127.016L485.045 127.368V113.576L485.365 114.12L482.517 113.544V112.2L490.101 112.008V113.352L487.093 114.056L487.605 113.576ZM467.029 129V127.624L469.812 127.016L469.525 127.368V113.576L469.877 114.12L467.029 113.544V112.2L474.965 112.008V113.352L471.605 114.056L472.085 113.576V118.728L471.637 118.344H475.573C477.493 118.344 478.965 118.781 479.989 119.656C481.013 120.531 481.525 121.821 481.525 123.528C481.525 125.256 480.949 126.6 479.797 127.56C478.645 128.52 476.778 129 474.197 129H467.029ZM472.085 127.624L471.637 127.208H474.197C475.818 127.208 477.002 126.909 477.749 126.312C478.495 125.693 478.869 124.787 478.869 123.592C478.869 122.461 478.538 121.608 477.877 121.032C477.237 120.435 476.266 120.136 474.965 120.136H471.637L472.085 119.72V127.624Z" fill="white"/>
<path d="M232.102 203.584L208.416 179.898C208.092 179.573 207.707 179.315 207.283 179.139C206.859 178.963 206.405 178.872 205.946 178.872C205.487 178.872 205.032 178.963 204.608 179.139C204.184 179.315 203.799 179.573 203.475 179.898L198.556 184.817L204.795 191.056C205.531 190.806 206.322 190.767 207.078 190.944C207.835 191.122 208.526 191.508 209.074 192.06C209.622 192.611 210.004 193.305 210.176 194.063C210.349 194.82 210.305 195.611 210.049 196.345L216.056 202.352C216.953 202.043 217.93 202.052 218.822 202.376C219.714 202.7 220.469 203.32 220.959 204.133C221.45 204.945 221.647 205.902 221.518 206.842C221.389 207.783 220.942 208.65 220.251 209.301C219.56 209.952 218.667 210.346 217.72 210.418C216.774 210.491 215.831 210.236 215.049 209.698C214.267 209.159 213.694 208.369 213.424 207.459C213.154 206.549 213.204 205.574 213.566 204.696L207.957 199.087V213.845C208.807 214.266 209.486 214.965 209.883 215.827C210.28 216.688 210.369 217.659 210.137 218.578C209.905 219.498 209.364 220.31 208.606 220.879C207.848 221.448 206.917 221.741 205.97 221.707C205.022 221.674 204.114 221.317 203.398 220.696C202.681 220.075 202.199 219.227 202.032 218.294C201.865 217.36 202.022 216.398 202.479 215.566C202.935 214.735 203.662 214.085 204.539 213.725V198.831C204.032 198.623 203.57 198.316 203.182 197.929C202.794 197.542 202.486 197.082 202.276 196.575C202.066 196.068 201.958 195.525 201.96 194.976C201.961 194.428 202.07 193.885 202.282 193.379L196.14 187.233L179.898 203.481C179.573 203.805 179.314 204.19 179.138 204.614C178.962 205.039 178.871 205.493 178.871 205.952C178.871 206.412 178.962 206.866 179.138 207.291C179.314 207.715 179.573 208.1 179.898 208.424L203.584 232.102C203.908 232.427 204.293 232.685 204.717 232.861C205.141 233.037 205.595 233.128 206.054 233.128C206.513 233.128 206.968 233.037 207.392 232.861C207.816 232.685 208.201 232.427 208.525 232.102L232.102 208.519C232.427 208.195 232.686 207.81 232.862 207.385C233.038 206.961 233.129 206.507 233.129 206.047C233.129 205.588 233.038 205.133 232.862 204.709C232.686 204.285 232.427 203.9 232.102 203.576" fill="#DD4C35"/>
<path d="M198.556 184.817L204.795 191.056C205.531 190.806 206.322 190.767 207.078 190.944C207.835 191.122 208.526 191.508 209.074 192.06C209.622 192.611 210.004 193.305 210.176 194.063C210.349 194.82 210.305 195.611 210.049 196.345L216.056 202.352C216.953 202.043 217.93 202.052 218.822 202.376C219.714 202.7 220.469 203.32 220.959 204.133C221.45 204.945 221.647 205.902 221.518 206.842C221.389 207.783 220.942 208.651 220.251 209.301C219.56 209.952 218.667 210.346 217.72 210.419C216.774 210.491 215.831 210.236 215.049 209.698C214.267 209.159 213.694 208.369 213.424 207.459C213.154 206.549 213.204 205.574 213.566 204.696L207.957 199.087V213.845C208.807 214.266 209.486 214.965 209.883 215.827C210.28 216.688 210.369 217.659 210.137 218.578C209.905 219.498 209.364 220.31 208.606 220.879C207.848 221.448 206.917 221.741 205.97 221.707C205.022 221.674 204.114 221.317 203.398 220.696C202.681 220.075 202.199 219.227 202.032 218.294C201.865 217.36 202.022 216.398 202.479 215.566C202.935 214.735 203.662 214.085 204.539 213.725V198.831C204.032 198.623 203.57 198.316 203.182 197.929C202.794 197.542 202.486 197.082 202.276 196.575C202.066 196.068 201.958 195.525 201.959 194.976C201.961 194.428 202.07 193.885 202.282 193.379L196.14 187.233" fill="white"/>
<path d="M511.102 203.584L487.416 179.898C487.092 179.573 486.707 179.315 486.283 179.139C485.859 178.963 485.405 178.872 484.946 178.872C484.487 178.872 484.032 178.963 483.608 179.139C483.184 179.315 482.799 179.573 482.475 179.898L477.556 184.817L483.795 191.056C484.531 190.806 485.322 190.767 486.078 190.944C486.835 191.122 487.526 191.508 488.074 192.06C488.622 192.611 489.004 193.305 489.176 194.063C489.349 194.82 489.305 195.611 489.049 196.345L495.056 202.352C495.953 202.043 496.93 202.052 497.822 202.376C498.714 202.7 499.469 203.32 499.959 204.133C500.45 204.945 500.647 205.902 500.518 206.842C500.389 207.783 499.942 208.65 499.251 209.301C498.56 209.952 497.667 210.346 496.72 210.418C495.774 210.491 494.831 210.236 494.049 209.698C493.267 209.159 492.694 208.369 492.424 207.459C492.154 206.549 492.204 205.574 492.566 204.696L486.957 199.087V213.845C487.807 214.266 488.486 214.965 488.883 215.827C489.28 216.688 489.369 217.659 489.137 218.578C488.905 219.498 488.364 220.31 487.606 220.879C486.848 221.448 485.917 221.741 484.97 221.707C484.022 221.674 483.114 221.317 482.398 220.696C481.681 220.075 481.199 219.227 481.032 218.294C480.865 217.36 481.022 216.398 481.479 215.566C481.935 214.735 482.662 214.085 483.539 213.725V198.831C483.032 198.623 482.57 198.316 482.182 197.929C481.794 197.542 481.486 197.082 481.276 196.575C481.066 196.068 480.958 195.525 480.96 194.976C480.961 194.428 481.07 193.885 481.282 193.379L475.14 187.233L458.898 203.481C458.573 203.805 458.314 204.19 458.138 204.614C457.962 205.039 457.871 205.493 457.871 205.952C457.871 206.412 457.962 206.866 458.138 207.291C458.314 207.715 458.573 208.1 458.898 208.424L482.584 232.102C482.908 232.427 483.293 232.685 483.717 232.861C484.141 233.037 484.595 233.128 485.054 233.128C485.513 233.128 485.968 233.037 486.392 232.861C486.816 232.685 487.201 232.427 487.525 232.102L511.102 208.519C511.427 208.195 511.686 207.81 511.862 207.385C512.038 206.961 512.129 206.507 512.129 206.047C512.129 205.588 512.038 205.133 511.862 204.709C511.686 204.285 511.427 203.9 511.102 203.576" fill="#DD4C35"/>
<path d="M477.556 184.817L483.795 191.056C484.531 190.806 485.322 190.767 486.078 190.944C486.835 191.122 487.527 191.508 488.074 192.06C488.622 192.611 489.004 193.305 489.176 194.063C489.349 194.82 489.305 195.611 489.049 196.345L495.056 202.352C495.953 202.043 496.93 202.052 497.822 202.376C498.714 202.7 499.469 203.32 499.959 204.133C500.45 204.945 500.647 205.902 500.518 206.842C500.389 207.783 499.942 208.651 499.251 209.301C498.56 209.952 497.667 210.346 496.72 210.419C495.774 210.491 494.831 210.236 494.049 209.698C493.267 209.159 492.694 208.369 492.424 207.459C492.154 206.549 492.204 205.574 492.566 204.696L486.957 199.087V213.845C487.807 214.266 488.486 214.965 488.883 215.827C489.28 216.688 489.369 217.659 489.137 218.578C488.905 219.498 488.364 220.31 487.606 220.879C486.848 221.448 485.917 221.741 484.97 221.707C484.022 221.674 483.114 221.317 482.398 220.696C481.681 220.075 481.199 219.227 481.032 218.294C480.865 217.36 481.022 216.398 481.479 215.566C481.935 214.735 482.662 214.085 483.539 213.725V198.831C483.032 198.623 482.57 198.316 482.182 197.929C481.794 197.542 481.486 197.082 481.276 196.575C481.066 196.068 480.958 195.525 480.96 194.976C480.961 194.428 481.07 193.885 481.282 193.379L475.14 187.233" fill="white"/>
</svg>
