<svg width="675" height="408" viewBox="0 0 675 408" fill="none" xmlns="http://www.w3.org/2000/svg">
<rect x="229" y="408" width="60" height="60" transform="rotate(-90 229 408)" fill="#2E2C2C"/>
<rect x="301" y="408" width="60" height="60" transform="rotate(-90 301 408)" fill="#2E2C2C"/>
<rect x="301" y="334" width="60" height="60" transform="rotate(-90 301 334)" fill="#2E2C2C"/>
<rect x="373" y="334" width="60" height="60" transform="rotate(-90 373 334)" fill="#2E2C2C"/>
<rect x="541" y="276" width="60" height="60" fill="#2E2C2C"/>
<rect x="541" y="348" width="60" height="60" fill="#2E2C2C"/>
<rect x="615" y="276" width="60" height="60" fill="#2E2C2C"/>
<rect x="615" y="202" width="60" height="60" fill="#2E2C2C"/>
<rect y="276" width="60" height="60" fill="#2E2C2C"/>
<rect y="204" width="60" height="60" fill="#2E2C2C"/>
<rect x="74" y="348" width="60" height="60" fill="#2E2C2C"/>
<rect y="348" width="60" height="60" fill="#2E2C2C"/>
<rect x="397" y="133" width="60" height="60" transform="rotate(-180 397 133)" fill="#2E2C2C"/>
<rect x="397" y="205" width="60" height="60" transform="rotate(-180 397 205)" fill="#2E2C2C"/>
<rect x="325" y="206" width="60" height="60" transform="rotate(-180 325 206)" fill="#FF1010"/>
<rect x="397" y="61" width="60" height="60" transform="rotate(-180 397 61)" fill="#2E2C2C"/>
<rect x="457" y="72" width="60" height="60" fill="#2E2C2C"/>
<rect x="457" width="60" height="60" fill="#2E2C2C"/>
<rect x="457" y="216" width="60" height="60" fill="#2E2C2C"/>
<rect x="457" y="144" width="60" height="60" fill="#2E2C2C"/>
<rect x="72" y="135" width="60" height="60" transform="rotate(-90 72 135)" fill="#2E2C2C"/>
<rect y="135" width="60" height="60" transform="rotate(-90 0 135)" fill="#2E2C2C"/>
<rect x="72" y="61" width="60" height="60" transform="rotate(-90 72 61)" fill="#2E2C2C"/>
<rect x="144" y="135" width="60" height="60" transform="rotate(-90 144 135)" fill="#2E2C2C"/>
<rect x="615" width="60" height="60" fill="#2E2C2C"/>
<rect x="541" y="72" width="60" height="60" fill="#2E2C2C"/>
<rect x="615" y="72" width="60" height="60" fill="#2E2C2C"/>
<rect x="541" width="60" height="60" fill="#2E2C2C"/>
</svg>
